<?xml version="1.0" encoding="utf-8"?>
<!-- Generator: Adobe Illustrator 16.0.0, SVG Export Plug-In . SVG Version: 6.00 Build 0)  -->
<!DOCTYPE svg PUBLIC "-//W3C//DTD SVG 1.1//EN" "http://www.w3.org/Graphics/SVG/1.1/DTD/svg11.dtd">
<svg version="1.1" xmlns="http://www.w3.org/2000/svg" xmlns:xlink="http://www.w3.org/1999/xlink" x="0px" y="0px" width="400px"
	 height="400px" viewBox="0 0 400 400" enable-background="new 0 0 400 400" xml:space="preserve">
<g id="Layer_2" display="none">
	
		<rect y="0.2" display="inline" fill-rule="evenodd" clip-rule="evenodd" fill="none" stroke="#231F20" stroke-miterlimit="10" width="400" height="400"/>
</g>
<g id="Layer_1" display="none">
	<g display="inline">
		<path fill-rule="evenodd" clip-rule="evenodd" d="M275.294,342.844c-1.659,6.734-3.077,12.727-4.66,18.675
			c-0.244,0.919-1.086,2.083-1.92,2.381c-15.202,5.435-30.161,11.893-45.757,15.795c-17.228,4.31-34.984,3.808-51.573-3.759
			c-17.953-8.188-27.407-22.355-27.472-42.387c-0.054-16.877,4.2-32.956,8.686-49.049c6.658-23.884,13.094-47.832,19.337-71.827
			c2.125-8.167,2.529-16.59,0.936-24.992c-1.378-7.269-5.763-11.416-12.984-12.9c-11.381-2.34-22.34-0.716-33.118,3.116
			c-2.08,0.74-4.188,1.398-7.013,2.337c1.269-5.346,2.689-10.125,3.475-15.007c0.689-4.282,2.796-6.479,6.882-7.944
			c15.441-5.534,30.598-11.955,46.875-14.784c12.806-2.225,25.569-2.049,38.199,1.362c22.551,6.091,35.635,24.011,34.924,47.473
			c-0.502,16.573-4.426,32.426-8.933,48.27c-6.58,23.135-12.776,46.384-18.716,69.691c-2.066,8.106-3.088,16.49-1.473,24.97
			c1.338,7.022,5.109,11.552,12.103,13.408c11.944,3.172,23.509,1.316,34.954-2.438
			C270.236,344.518,272.424,343.792,275.294,342.844z"/>
		<path fill-rule="evenodd" clip-rule="evenodd" d="M235.493,103.101c-20.347-0.075-39.116-13.073-44.337-30.987
			c-6.842-23.476,8.566-48.071,33.241-53.063c20.372-4.122,40.007,3.957,50.058,20.595c14.388,23.816,0.714,54.778-27.296,61.619
			C243.348,102.194,239.386,102.504,235.493,103.101z"/>
	</g>
</g>
<g id="Layer_3" display="none">
	<g display="inline">
		<path fill-rule="evenodd" clip-rule="evenodd" d="M199.841,263.624c-17.471,0-34.943,0.006-52.415-0.003
			c-7.802-0.004-11.561-3.734-11.787-11.585c-0.306-10.598-3.981-20.146-9.74-28.83c-5.442-8.21-11.271-16.174-17.164-24.07
			c-15.918-21.331-24.614-44.855-23.837-71.857c1.529-53.158,42.44-100.401,94.94-108.974
			c63.263-10.33,120.643,29.082,133.068,91.935c5.365,27.141,1.225,53.063-13.785,76.654c-6.189,9.728-13.215,18.925-19.909,28.328
			c-6.914,9.711-12.972,19.8-14.56,31.927c-0.217,1.673-0.364,3.36-0.419,5.046c-0.241,7.596-4.033,11.409-11.555,11.42
			C235.067,263.641,217.454,263.623,199.841,263.624z M174.289,243.325c0-1.236,0.03-1.924-0.004-2.609
			c-0.924-18.483-3.404-36.766-8.782-54.482c-6.453-21.258-13.482-42.341-20.312-63.483c-1.133-3.507-1.958-6.909,1.327-9.698
			c3.476-2.95,6.744-1.388,10.09,0.526c6.963,3.982,14.064,7.726,20.996,11.76c2.081,1.21,3.381,1.065,5.089-0.607
			c3.723-3.645,7.648-7.084,11.53-10.564c4.262-3.822,7.087-3.812,11.433,0.062c3.892,3.469,7.832,6.895,11.534,10.557
			c1.744,1.723,3.017,1.743,5.071,0.55c7.424-4.309,14.999-8.358,22.466-12.595c3.012-1.709,5.907-1.985,8.6,0.354
			c2.502,2.174,2.878,4.884,1.795,8.056c-2.817,8.252-5.383,16.592-8.181,24.852c-8.175,24.13-16.377,48.258-19.535,73.703
			c-0.96,7.736-1.435,15.533-2.138,23.395c6.948,0,13.102,0,19.354,0c2.21-15.761,10.082-28.675,19.065-41.1
			c6.104-8.44,12.386-16.785,17.948-25.576c10.687-16.892,14.546-35.418,12.374-55.341c-7.108-65.245-77.456-103.689-136.223-74.346
			c-38.078,19.012-58.908,60.816-50.804,102.079c3.207,16.326,11.842,29.957,21.615,43.006
			c11.727,15.656,23.863,31.104,26.697,51.503c5.316,0,10.235,0,15.154,0C171.559,243.325,172.668,243.325,174.289,243.325z
			 M237.358,132.378c-5.503,3.033-9.987,5.356-14.318,7.935c-3.87,2.306-7.084,1.765-10.281-1.295
			c-4.141-3.965-8.477-7.726-12.85-11.685c-4.429,4.021-8.671,7.714-12.724,11.606c-3.324,3.191-6.646,3.665-10.65,1.232
			c-4.246-2.579-8.7-4.816-14.037-7.736c12.756,36.683,24.879,72.359,25.313,110.664c8.352,0,16.038,0,24.212,0
			C212.412,204.715,224.583,169.155,237.358,132.378z"/>
		<path fill-rule="evenodd" clip-rule="evenodd" d="M200.134,283.915c17.334,0.005,34.667-0.034,52,0.024
			c7.045,0.023,12.681,3.8,17.274,8.377c5.636,5.614,4.042,14.703-2.53,19.6c-3.763,2.805-3.751,3.804,0.079,6.646
			c8.493,6.305,7.309,18.679-2.148,23.339c-1.814,0.895-3.638,2.141-4.929,3.669c-7.974,9.44-17.797,15.854-29.765,19.033
			c-1.312,0.348-3.124,1.255-3.494,2.323c-3.799,10.953-12.453,15.366-22.943,16.521c-10.921,1.202-21.527-1.161-27.422-11.083
			c-3.346-5.632-7.177-8.106-12.928-9.988c-9.281-3.035-16.755-9.059-23.095-16.505c-1.301-1.529-3.029-2.911-4.842-3.757
			c-9.713-4.53-11.096-17.184-2.471-23.567c3.818-2.825,3.832-3.922,0.082-6.631c-8.669-6.261-7.126-18.608,2.212-23.703
			c6.773-3.696,13.569-4.486,20.955-4.372C170.82,284.067,185.479,283.908,200.134,283.915z"/>
	</g>
</g>
<g id="Layer_4">
	<path fill-rule="evenodd" clip-rule="evenodd" d="M200.174,383.648c-10.291-10.277-20.823-20.797-31.313-31.273
		c42.684-42.689,85.46-85.473,128.237-128.256c-0.168-0.295-0.337-0.592-0.503-0.891c-93.367,0-186.735,0-280.355,0
		c0-15.559,0-30.737,0-46.269c93.433,0,186.831,0,280.661,0c-43.146-43.139-85.899-85.885-128.352-128.331
		c11.095-11.086,21.679-21.663,31.9-31.877C261.32,77.622,322.697,139,383.761,200.063
		C322.948,260.875,261.572,322.252,200.174,383.648z"/>
</g>
</svg>
