<!-- Generated by IcoMoon.io -->
<svg version="1.1" xmlns="http://www.w3.org/2000/svg" width="1024" height="1024" viewBox="0 0 1024 1024">
<title></title>
<g id="icomoon-ignore">
</g>
<path fill="#000" d="M269.839 987.233c-22.382-22.551-44.531-44.961-66.79-67.264-46.216-46.298-92.669-92.357-138.683-138.854-30.339-30.648-16.768-80.448 24.584-90.609 19.766-4.854 37.117 0.627 51.551 15.053 22.067 22.052 43.146 45.097 65.106 67.254 2.575 2.598 9.953 8.64 11.169 8.054 0-3.044 0-7.89 0-10.934-0.005-223.421-0.026-446.863 0.020-670.29 0-8.696-0.499-17.62 1.19-26.051 5.53-27.548 30.625-45.404 58.486-42.557 26.701 2.726 47.258 25.531 47.316 53.696 0.21 102.656 0.113 205.312 0.115 307.965 0.003 125.814-0.013 251.62-0.020 377.421 0 2.877 0 5.75 0 10.89 4.063-3.656 6.51-5.66 8.745-7.892 22.085-22.034 44.088-44.152 66.214-66.15 23.324-23.186 56.269-24.161 78.067-2.442 21.932 21.855 21.184 54.845-2.028 78.103-66.127 66.24-202.435 202.196-205.043 204.608z"></path>
<path fill="#000" d="M696.059 190.126c76.495 0 152.993-0.008 229.491 0.018 5.028 0 10.112-0.22 15.068 0.453 23.734 3.236 39.25 22.646 37.573 46.633-1.536 21.962-20.006 38.899-43.505 39.037-43.95 0.259-87.905 0.097-131.858 0.097-113.736 0-227.474 0.044-341.202-0.051-30.572-0.026-50.604-22.912-45.517-51.53 3.681-20.716 21.652-34.565 45.437-34.588 78.164-0.077 156.337-0.031 234.514-0.031-0.003-0.013-0.003-0.028-0.003-0.038z"></path>
<path fill="#000" d="M589.97 423.764c-44.247 0-88.481 0.164-132.718-0.084-17.784-0.097-30.838-8.934-38.098-24.922-7.252-15.974-5.069-31.524 6.083-45.225 9.349-11.479 21.99-15.468 36.567-15.434 67.026 0.172 134.057 0.069 201.091 0.072 18.767 0 37.542-0.172 56.31 0.079 25.874 0.346 44.838 18.788 44.657 43.054-0.174 24.358-19.177 42.399-45.192 42.478-42.903 0.136-85.806 0.036-128.699 0.036 0-0.018 0-0.036 0-0.054z"></path>
<path fill="#000" d="M513.912 564.913c-18.435 0-36.872 0.251-55.306-0.059-25.142-0.425-43.756-19.1-43.466-43.116 0.289-23.839 18.545-42.084 43.241-42.299 37.202-0.323 74.406-0.315 111.606-0.005 25.001 0.207 43.686 19.1 43.497 43.092-0.197 23.572-18.706 41.902-43.269 42.319-18.762 0.312-37.537 0.061-56.302 0.067z"></path>
</svg>
