<svg width="15" height="17" viewBox="0 0 15 17" fill="none" xmlns="http://www.w3.org/2000/svg">
<path d="M9.75022 1.98366C7.80354 1.98366 6.21997 3.56723 6.21997 5.51392C6.21997 7.4606 7.80354 9.04417 9.75022 9.04417C11.6969 9.04417 13.2805 7.4606 13.2805 5.51392C13.2805 3.56723 11.6969 1.98366 9.75022 1.98366ZM9.67 5.20705L9.99088 5.30731C10.3296 5.41315 10.5571 5.72267 10.5571 6.07748V6.18634C10.5571 6.57363 10.2828 6.89798 9.91833 6.97554V7.0605C9.91833 7.20904 9.79789 7.32947 9.64935 7.32947C9.50082 7.32947 9.38038 7.20904 9.38038 7.0605V6.90315C9.12103 6.7688 8.9433 6.49802 8.9433 6.18634C8.9433 6.03781 9.06374 5.91737 9.21228 5.91737C9.36082 5.91737 9.48125 6.03781 9.48125 6.18634C9.48125 6.33465 9.60192 6.45532 9.75022 6.45532C9.89852 6.45532 10.0192 6.33465 10.0192 6.18634V6.07751C10.0192 5.95923 9.94334 5.85608 9.83044 5.82078L9.50956 5.72052C9.17085 5.61468 8.9433 5.30516 8.9433 4.95035V4.84149C8.9433 4.49085 9.1682 4.19189 9.48125 4.08084V3.96733C9.48125 3.81879 9.60168 3.69836 9.75022 3.69836C9.89876 3.69836 10.0192 3.81879 10.0192 3.96733V4.08084C10.3322 4.19189 10.5571 4.49085 10.5571 4.84149C10.5571 4.99003 10.4367 5.11046 10.2882 5.11046C10.1396 5.11046 10.0192 4.99003 10.0192 4.84149C10.0192 4.69318 9.89852 4.57252 9.75022 4.57252C9.60192 4.57252 9.48125 4.69318 9.48125 4.84149V4.95032C9.48125 5.0686 9.5571 5.17175 9.67 5.20705ZM12.229 15.6003C11.4915 15.5953 10.8933 14.9941 10.8933 14.2555V9.76252C10.8933 9.59243 10.7373 9.4645 10.5708 9.4992C8.07369 10.0198 5.68202 8.10082 5.68202 5.51392C5.68202 2.92772 8.07291 1.0078 10.5708 1.5286C10.7373 1.56333 10.8933 1.43537 10.8933 1.26528V1.07589C10.8933 0.481694 10.4117 0 9.81746 0H1.07589C0.481694 0 0 0.481694 0 1.07589V14.2555C0 15.2953 0.842957 16.1383 1.8828 16.1383H12.2382C12.3939 16.1383 12.5186 16.0061 12.5063 15.8478C12.4953 15.7063 12.3709 15.6013 12.229 15.6003ZM2.62247 3.93371H4.90873C5.05727 3.93371 5.1777 4.05414 5.1777 4.20268C5.1777 4.35122 5.05727 4.47165 4.90873 4.47165H2.62247C2.47393 4.47165 2.3535 4.35122 2.3535 4.20268C2.3535 4.05414 2.47393 3.93371 2.62247 3.93371ZM2.62247 6.95964H4.90873C5.05727 6.95964 5.1777 7.08007 5.1777 7.22861C5.1777 7.37715 5.05727 7.49758 4.90873 7.49758H2.62247C2.47393 7.49758 2.3535 7.37715 2.3535 7.22861C2.3535 7.08007 2.47393 6.95964 2.62247 6.95964ZM8.27088 13.3477H2.62247C2.47393 13.3477 2.3535 13.2273 2.3535 13.0787C2.3535 12.9302 2.47393 12.8098 2.62247 12.8098H8.27088C8.41942 12.8098 8.53985 12.9302 8.53985 13.0787C8.53985 13.2273 8.41942 13.3477 8.27088 13.3477ZM8.27088 10.5235H2.62247C2.47393 10.5235 2.3535 10.4031 2.3535 10.2545C2.3535 10.106 2.47393 9.98557 2.62247 9.98557H8.27088C8.41942 9.98557 8.53985 10.106 8.53985 10.2545C8.53985 10.4031 8.41942 10.5235 8.27088 10.5235ZM14.12 13.8514C14.121 14.5947 13.5185 15.1972 12.7761 15.1972C12.0343 15.1972 11.4323 14.5961 11.4323 13.8534C11.4323 11.369 11.4305 10.401 11.4321 10.0178C11.4328 9.86967 11.553 9.75022 11.7011 9.75022H13.0451C13.6032 9.75022 14.0622 10.1752 14.1156 10.7192L14.12 13.8514Z" fill="#007BFF"/>
</svg>
