<svg width="12" height="12" viewBox="0 0 12 12" fill="none" xmlns="http://www.w3.org/2000/svg">
<path d="M7.09938 5.76932L11.7719 1.27624C12.076 0.983985 12.076 0.511448 11.7719 0.219192C11.468 -0.073064 10.9766 -0.073064 10.6726 0.219192L5.99993 4.71227L1.32737 0.219192C1.02329 -0.073064 0.532001 -0.073064 0.228062 0.219192C-0.0760205 0.511448 -0.0760205 0.983985 0.228062 1.27624L4.90062 5.76932L0.228062 10.2624C-0.0760205 10.5546 -0.0760205 11.0272 0.228062 11.3194C0.379533 11.4652 0.578696 11.5385 0.777716 11.5385C0.976736 11.5385 1.17576 11.4652 1.32737 11.3194L5.99993 6.82636L10.6726 11.3194C10.8242 11.4652 11.0233 11.5385 11.2223 11.5385C11.4213 11.5385 11.6203 11.4652 11.7719 11.3194C12.076 11.0272 12.076 10.5546 11.7719 10.2624L7.09938 5.76932Z" fill="#828282"/>
</svg>
