<svg width="14" height="14" viewBox="0 0 14 14" fill="none" xmlns="http://www.w3.org/2000/svg">
<path d="M7 0C3.14027 0 0 3.14027 0 7C0 10.8597 3.14027 14 7 14C10.8597 14 14 10.8597 14 7C14 3.14027 10.8597 0 7 0Z" fill="#F9DEDF"/>
<path d="M9.83132 9.00597C9.94526 9.11986 9.94526 9.30454 9.83132 9.41845L9.41898 9.83082C9.30504 9.94471 9.12041 9.94471 9.00647 9.83082L7.00015 7.82453L4.99383 9.83085C4.87989 9.94474 4.69526 9.94474 4.58132 9.83085L4.16895 9.41845C4.05501 9.30456 4.05501 9.11988 4.16895 9.00597L6.17527 6.99962L4.16895 4.9933C4.05501 4.87942 4.05501 4.69474 4.16895 4.58082L4.58132 4.16842C4.69526 4.05454 4.87989 4.05454 4.99383 4.16842L7.00015 6.17474L9.00647 4.16842C9.12041 4.05454 9.30504 4.05454 9.41898 4.16842L9.83135 4.58082C9.94529 4.69471 9.94529 4.87939 9.83135 4.9933L7.82503 6.99962L9.83132 9.00597Z" fill="#D92027"/>
</svg>
