<?xml version="1.0" encoding="utf-8"?>
<!-- Generator: Adobe Illustrator 16.0.0, SVG Export Plug-In . SVG Version: 6.00 Build 0)  -->
<!DOCTYPE svg PUBLIC "-//W3C//DTD SVG 1.1//EN" "http://www.w3.org/Graphics/SVG/1.1/DTD/svg11.dtd">
<svg version="1.1" xmlns="http://www.w3.org/2000/svg" xmlns:xlink="http://www.w3.org/1999/xlink" x="0px" y="0px" width="400px"
	 height="400px" viewBox="0 0 400 400" enable-background="new 0 0 400 400" xml:space="preserve">
<g id="Layer_1" display="none">
	<g display="inline">
		<path fill-rule="evenodd" clip-rule="evenodd" fill="#42545C" d="M199.693,388.911c-104-0.109-188.558-84.7-188.634-188.712
			C10.982,96.159,95.91,10.84,199.3,11.089c105.476,0.252,189.88,84.697,189.595,189.684
			C388.615,304.674,303.79,389.022,199.693,388.911z M204.394,306.373c0-0.022,0-0.046,0-0.072c19.909,0,39.825,0.296,59.727-0.09
			c15.902-0.314,31.85-5.879,34.565-22.132c4.214-25.229,4.216-51.428-10.792-74.493c-11.981-18.416-28.13-21.97-47.444-10.285
			c-24.471,14.804-48.376,14.24-72.568-0.727c-17.563-10.869-34.746-8.722-44.138,9.405c-8.281,15.981-13.402,34.673-15.295,52.655
			c-3.333,31.712,10.411,45.198,41.994,45.684C168.42,306.597,186.408,306.373,204.394,306.373z M205.727,95.88
			c-31.772-0.098-54.002,21.391-53.628,51.847c0.36,29.096,23.811,52.296,52.777,52.205c28.986-0.091,52.521-23.414,52.78-52.314
			C257.924,118.025,235.791,95.975,205.727,95.88z"/>
		<path fill-rule="evenodd" clip-rule="evenodd" fill="#FFFFFF" d="M204.394,306.373c-17.985,0-35.974,0.224-53.952-0.055
			c-31.583-0.485-45.327-13.972-41.994-45.684c1.893-17.982,7.014-36.674,15.295-52.655c9.393-18.127,26.575-20.274,44.138-9.405
			c24.192,14.967,48.098,15.53,72.568,0.727c19.314-11.685,35.463-8.131,47.444,10.285c15.008,23.065,15.006,49.265,10.792,74.493
			c-2.716,16.253-18.663,21.817-34.565,22.132c-19.901,0.386-39.817,0.09-59.727,0.09
			C204.394,306.327,204.394,306.351,204.394,306.373z"/>
		<path fill-rule="evenodd" clip-rule="evenodd" fill="#FFFFFF" d="M205.727,95.88c30.064,0.094,52.197,22.145,51.93,51.738
			c-0.26,28.9-23.794,52.224-52.78,52.314c-28.967,0.091-52.417-23.109-52.777-52.205C151.725,117.271,173.954,95.783,205.727,95.88
			z"/>
	</g>
</g>
<g id="Layer_2">
	<path fill-rule="evenodd" clip-rule="evenodd" d="M388.643,198.86c0,19.971-0.562,39.963,0.179,59.908
		c0.583,15.654-2.871,29.95-9.665,43.854c-16.813,34.41-43.826,55.81-81.733,60.925c-41.549,5.605-75.318-9.653-100.687-43.095
		c-1.598-2.107-3.139-2.86-5.726-2.856c-43.741,0.079-87.482,0.077-131.224,0.041c-9.625-0.008-18.646-2.542-26.917-7.413
		c-13.658-8.043-20.342-20.575-20.448-35.965c-0.341-49.497-0.298-98.999-0.049-148.497c0.112-22.215,16.033-39.148,39.079-42.543
		c3.375-0.497,6.815-0.736,10.227-0.757c13.845-0.083,27.691,0.038,41.535-0.127c1.709-0.021,3.825-0.882,5.038-2.078
		c14.219-14.023,28.332-28.156,42.383-42.348c1.765-1.783,3.489-2.598,6.048-2.59c29.16,0.09,58.321,0.089,87.482,0.001
		c2.549-0.008,4.287,0.773,6.061,2.565c13.964,14.106,27.983,28.158,42.135,42.076c1.368,1.346,3.733,2.334,5.651,2.36
		c14.7,0.193,29.407-0.068,44.106,0.167c10.633,0.169,20.506,3.294,29.209,9.515c11.9,8.506,17.063,20.619,17.223,34.814
		c0.269,24.012,0.073,48.029,0.073,72.044C388.629,198.86,388.636,198.86,388.643,198.86z M282.728,177.943
		c-44.507,0.014-80.829,36.333-80.844,80.836c-0.016,44.51,36.311,80.937,80.743,80.969c44.66,0.033,81.093-36.396,81.062-81.053
		C363.657,214.261,327.233,177.931,282.728,177.943z M255.119,156.094c-18.037-24.384-53.072-33.318-82.238-20.934
		c-29.803,12.654-47.611,44.78-42.123,75.99c4.512,25.661,27.98,53.427,45.772,54.537
		C176.94,210.642,203.215,174.354,255.119,156.094z"/>
	<path fill-rule="evenodd" clip-rule="evenodd" d="M271.106,247.241c0-16.038,0-31.422,0-46.995c7.808,0,15.35,0,23.302,0
		c0,15.438,0,30.907,0,46.784c15.869,0,31.338,0,46.992,0c0,7.95,0,15.491,0,23.445c-15.453,0-30.923,0-46.794,0
		c0,15.873,0,31.345,0,46.993c-7.947,0-15.489,0-23.432,0c0-15.471,0-30.942,0-46.809c-15.862,0-31.335,0-46.992,0
		c0-7.937,0-15.478,0-23.419C239.639,247.241,255.11,247.241,271.106,247.241z"/>
</g>
</svg>
