<?xml version="1.0" encoding="utf-8"?>
<!-- Generator: Adobe Illustrator 16.0.0, SVG Export Plug-In . SVG Version: 6.00 Build 0)  -->
<!DOCTYPE svg PUBLIC "-//W3C//DTD SVG 1.1//EN" "http://www.w3.org/Graphics/SVG/1.1/DTD/svg11.dtd">
<svg version="1.1" id="Layer_1" xmlns="http://www.w3.org/2000/svg" xmlns:xlink="http://www.w3.org/1999/xlink" x="0px" y="0px"
	 width="400px" height="400px" viewBox="0 0 400 400" enable-background="new 0 0 400 400" xml:space="preserve">
<g>
	<path fill-rule="evenodd" clip-rule="evenodd" d="M8.816,391.469c0-1.649,0-2.87,0-4.093c0-24.449-0.054-48.898,0.102-73.347
		c0.012-1.959,0.958-4.41,2.323-5.792c76.225-77.078,152.542-154.063,228.83-231.077c0.869-0.877,1.484-2.006,1.945-2.64
		c27.378,27.376,54.24,54.237,81.712,81.705c-0.601,0.422-1.869,1.062-2.817,2.019c-76.154,76.795-152.292,153.608-228.372,230.478
		c-2.018,2.04-4.018,2.815-6.844,2.805c-24.076-0.1-48.151-0.058-72.227-0.058C12.105,391.469,10.741,391.469,8.816,391.469z"/>
	<path fill-rule="evenodd" clip-rule="evenodd" d="M349.911,133.104c-26.896-26.893-53.68-53.677-80.742-80.738
		c-0.088,0.465-0.124,0.169,0.006,0.039c12.77-12.808,25.411-25.75,38.383-38.35c8.33-8.086,20.377-8.013,28.637,0.111
		c16.81,16.532,33.481,33.206,50.012,50.018c7.602,7.735,8.133,19.117,1.119,27.21c-12.17,14.043-24.74,27.744-37.149,41.58
		C350.03,133.136,349.748,133.178,349.911,133.104z"/>
</g>
</svg>
