<svg width="24" height="24" viewBox="0 0 24 24" fill="none" xmlns="http://www.w3.org/2000/svg">
<path fill-rule="evenodd" clip-rule="evenodd" d="M8.09675 16.5423C8.33494 16.3531 8.57233 16.1644 8.81453 15.9686C6.94598 14.0669 6.48161 11.8445 7.50986 9.71064C8.37227 7.93054 10.4619 6.62587 12.2199 6.83595V8.61604C13.4583 7.64307 14.586 6.74749 15.7691 5.80769C15.1605 5.31965 14.5548 4.84055 13.9429 4.35646C13.3764 3.90836 12.8046 3.45598 12.2199 2.98828V3.93914V4.76838C8.48283 5.11113 5.98406 6.94651 5.17694 10.6283C4.61306 13.1603 5.42018 15.3605 7.26662 17.207C7.54998 16.9767 7.82389 16.7591 8.09675 16.5423ZM12.1533 20.9889V19.2088C15.6251 18.9324 18.0575 17.307 19.0636 13.979C19.8597 11.2591 19.141 8.83776 17.1288 6.78125C16.598 7.21245 16.1005 7.61049 15.5919 8.00852C17.8695 10.253 17.7147 12.8181 16.7086 14.565C15.7577 16.2235 13.6902 17.3844 12.1423 17.0859V15.3611C11.5311 15.8456 10.9446 16.3137 10.365 16.7763C9.78075 17.2426 9.20357 17.7032 8.61523 18.1695C9.79828 19.1203 10.9371 20.027 12.1533 20.9889Z" fill="white"/>
</svg>
