<?xml version="1.0" encoding="utf-8"?>
<!-- Generator: Adobe Illustrator 16.0.0, SVG Export Plug-In . SVG Version: 6.00 Build 0)  -->
<!DOCTYPE svg PUBLIC "-//W3C//DTD SVG 1.1//EN" "http://www.w3.org/Graphics/SVG/1.1/DTD/svg11.dtd">
<svg version="1.1" id="Layer_1" xmlns="http://www.w3.org/2000/svg" xmlns:xlink="http://www.w3.org/1999/xlink" x="0px" y="0px"
	 width="400px" height="400px" viewBox="0 0 400 400" enable-background="new 0 0 400 400" xml:space="preserve">
<g>
	<path fill-rule="evenodd" clip-rule="evenodd" d="M308.902,14.172c26.472,0,52.817,0,79.278,0c0,123.796,0,247.503,0,371.313
		c-26.437,0-52.78,0-79.278,0C308.902,261.775,308.902,138.068,308.902,14.172z"/>
	<path fill-rule="evenodd" clip-rule="evenodd" d="M239.626,385.828c-26.478,0-52.821,0-79.28,0c0-96.718,0-193.346,0-290.072
		c26.439,0,52.785,0,79.28,0C239.626,192.39,239.626,289.016,239.626,385.828z"/>
	<path fill-rule="evenodd" clip-rule="evenodd" d="M91.115,385.828c-26.501,0-52.845,0-79.296,0c0-67.903,0-135.709,0-203.682
		c26.363,0,52.757,0,79.296,0C91.115,249.957,91.115,317.812,91.115,385.828z"/>
</g>
</svg>
