<svg width="24" height="24" viewBox="0 0 24 24" fill="none" xmlns="http://www.w3.org/2000/svg">
<path d="M15.775 5.70853C15.7596 5.70853 15.7442 5.70887 15.7288 5.70957H6.01707C5.48128 5.68462 5.02672 6.09872 5.00177 6.63451C5.00104 6.6499 5.00069 6.66533 5.00074 6.68072V20.6836L6.31068 19.464C6.5312 19.2735 6.8581 19.2735 7.07857 19.464L8.79506 20.9998L10.489 19.464C10.7128 19.2826 11.0331 19.2826 11.2569 19.464L12.9508 20.9998L14.6673 19.464C14.8878 19.2735 15.2147 19.2735 15.4351 19.464L16.7451 20.6836V6.68072C16.7457 6.14437 16.3114 5.70909 15.775 5.70853ZM8.07234 9.09735H10.9632C11.1503 9.09735 11.302 9.24905 11.302 9.43614C11.302 9.62324 11.1503 9.77494 10.9632 9.77494H8.07234C7.88524 9.77494 7.73355 9.62324 7.73355 9.43614C7.73359 9.24905 7.88524 9.09735 8.07234 9.09735ZM13.6735 15.6471H8.07234C7.88524 15.6471 7.73355 15.4954 7.73355 15.3083C7.73355 15.1212 7.88524 14.9695 8.07234 14.9695H13.6735C13.8606 14.9695 14.0123 15.1212 14.0123 15.3083C14.0123 15.4954 13.8606 15.6471 13.6735 15.6471ZM13.6735 12.711H8.07234C7.88524 12.711 7.73355 12.5593 7.73355 12.3722C7.73355 12.1851 7.88524 12.0334 8.07234 12.0334H13.6735C13.8606 12.0334 14.0123 12.1851 14.0123 12.3722C14.0123 12.5593 13.8606 12.711 13.6735 12.711Z" fill="white"/>
<path d="M18.4388 3H8.72715C8.16222 3.01228 7.71069 3.47384 7.71082 4.03894V5.03266H15.7286C16.6515 5.02013 17.4099 5.75814 17.4225 6.6811C17.4225 6.68119 17.4225 6.68132 17.4225 6.6814V16.7771C17.64 16.6178 17.9381 16.6271 18.1452 16.7996L19.4552 18.0192V4.03894C19.4553 3.47384 19.0038 3.01228 18.4388 3Z" fill="white"/>
</svg>
