<?xml version="1.0" encoding="utf-8"?>
<!-- Generator: Adobe Illustrator 16.0.0, SVG Export Plug-In . SVG Version: 6.00 Build 0)  -->
<!DOCTYPE svg PUBLIC "-//W3C//DTD SVG 1.1//EN" "http://www.w3.org/Graphics/SVG/1.1/DTD/svg11.dtd">
<svg version="1.1" id="Layer_1" xmlns="http://www.w3.org/2000/svg" xmlns:xlink="http://www.w3.org/1999/xlink" x="0px" y="0px"
	 width="400px" height="400px" viewBox="0 0 400 400" enable-background="new 0 0 400 400" xml:space="preserve">
<g>
	<path fill-rule="evenodd" clip-rule="evenodd" d="M389.137,82.259c-1.662,12.745-12.406,19.371-25.22,19.375
		c-35.094,0.009-70.187,0.002-105.28,0c-37.91-0.003-75.82,0.026-113.731-0.028c-13.969-0.02-24.765-9.848-25.538-23.018
		c-0.832-14.179,10.296-25.985,24.796-26.029c28.689-0.087,57.378-0.041,86.067-0.041c44.313,0.001,88.629,0.006,132.944,0.016
		C387.127,52.539,390.494,71.848,389.137,82.259z"/>
	<path fill-rule="evenodd" clip-rule="evenodd" d="M389.137,205.228c-1.56,12.758-12.406,19.373-25.224,19.374
		c-35.224,0.008-70.447,0.004-105.671,0.002c-38.041-0.003-76.083,0.033-114.125-0.037c-12.324-0.022-22.019-8.239-24.411-20.35
		c-2.148-10.885,4.037-22.393,14.749-26.718c3.008-1.216,6.446-1.913,9.687-1.916c73.649-0.105,147.299-0.095,220.95-0.065
		C385.877,175.525,390.903,190.764,389.137,205.228z"/>
	<path fill-rule="evenodd" clip-rule="evenodd" d="M389.137,328.196c-3.369,12.404-12.406,19.371-25.224,19.374
		c-35.224,0.008-70.447,0.003-105.671,0.002c-38.041-0.004-76.083,0.031-114.125-0.037c-12.324-0.022-22.019-8.241-24.411-20.35
		c-2.148-10.884,4.037-22.394,14.749-26.72c3.008-1.213,6.446-1.909,9.687-1.914c73.649-0.105,147.299-0.094,220.95-0.065
		C386.779,298.494,391.426,319.755,389.137,328.196z"/>
	<circle fill-rule="evenodd" clip-rule="evenodd" cx="47.348" cy="76.978" r="37.013"/>
	<circle fill-rule="evenodd" clip-rule="evenodd" cx="47.348" cy="199.51" r="37.013"/>
	<circle fill-rule="evenodd" clip-rule="evenodd" cx="51.715" cy="323.022" r="37.013"/>
</g>
</svg>
