<svg width="20" height="24" viewBox="0 0 20 24" fill="none" xmlns="http://www.w3.org/2000/svg">
<path d="M19.4541 5.32753C19.428 5.32753 19.428 5.30141 19.4019 5.2753C19.3758 5.24918 19.3758 5.22307 19.3497 5.19695L14.8578 0.156692C14.8317 0.130577 14.7795 0.104461 14.7534 0.078346C14.7273 0.078346 14.7273 0.0522307 14.7011 0.0522307C14.6489 0.0261153 14.5706 0 14.4922 0H3.47154C1.85239 0 0.520508 1.33188 0.520508 2.95103V21.049C0.520508 22.6681 1.85239 24 3.47154 24H16.5292C18.1484 24 19.4802 22.6681 19.4802 21.049V5.51034C19.4802 5.45811 19.4541 5.37976 19.4541 5.32753ZM14.9884 1.77584L17.8872 5.04026H14.9884V1.77584ZM18.4879 21.0229C18.4879 22.1197 17.6261 23.0076 16.5292 23.0076H3.47154C2.3747 23.0076 1.51289 22.1197 1.51289 21.049V2.92492C1.51289 1.82807 2.40081 0.966268 3.47154 0.966268H13.996V5.51034C13.996 5.77149 14.2049 6.00653 14.4922 6.00653H18.4879V21.0229Z" fill="#007BFF"/>
<path d="M4.046 6.00606H8.40726C8.66841 6.00606 8.90345 5.79713 8.90345 5.50986C8.90345 5.22259 8.69453 5.01367 8.40726 5.01367H4.046C3.78484 5.01367 3.5498 5.22259 3.5498 5.50986C3.5498 5.79713 3.78484 6.00606 4.046 6.00606Z" fill="#007BFF"/>
<path d="M8.40726 17.9922H4.046C3.78484 17.9922 3.5498 18.2011 3.5498 18.4884C3.5498 18.7495 3.75873 18.9846 4.046 18.9846H8.40726C8.66841 18.9846 8.90345 18.7756 8.90345 18.4884C8.90345 18.2272 8.66841 17.9922 8.40726 17.9922Z" fill="#007BFF"/>
<path d="M3.5498 8.80088C3.5498 9.06203 3.75873 9.29707 4.046 9.29707H15.6934C15.9546 9.29707 16.1896 9.08815 16.1896 8.80088C16.1896 8.53973 15.9807 8.30469 15.6934 8.30469H4.046C3.78484 8.30469 3.5498 8.51361 3.5498 8.80088Z" fill="#007BFF"/>
<path d="M15.6934 10.7598H4.046C3.78484 10.7598 3.5498 10.9687 3.5498 11.256C3.5498 11.5171 3.75873 11.7521 4.046 11.7521H15.6934C15.9546 11.7521 16.1896 11.5432 16.1896 11.256C16.1896 10.9687 15.9807 10.7598 15.6934 10.7598Z" fill="#007BFF"/>
<path d="M15.6934 13.1895H4.046C3.78484 13.1895 3.5498 13.3984 3.5498 13.6856C3.5498 13.9468 3.75873 14.1818 4.046 14.1818H15.6934C15.9546 14.1818 16.1896 13.9729 16.1896 13.6856C16.1896 13.3984 15.9807 13.1895 15.6934 13.1895Z" fill="#007BFF"/>
<path d="M15.6934 15.6172H4.046C3.78484 15.6172 3.5498 15.8261 3.5498 16.1134C3.5498 16.3745 3.75873 16.6096 4.046 16.6096H15.6934C15.9546 16.6096 16.1896 16.4006 16.1896 16.1134C16.1896 15.8522 15.9807 15.6172 15.6934 15.6172Z" fill="#007BFF"/>
</svg>
