<svg width="34" height="42" viewBox="0 0 34 42" fill="none" xmlns="http://www.w3.org/2000/svg">
<path d="M33.5445 9.32318C33.4988 9.32318 33.4988 9.27748 33.4531 9.23177C33.4074 9.18607 33.4074 9.14037 33.3617 9.09467L25.501 0.274211C25.4553 0.228509 25.3639 0.182807 25.3182 0.137106C25.2725 0.137106 25.2725 0.0914037 25.2267 0.0914037C25.1353 0.0457019 24.9982 0 24.8611 0H5.57495C2.74144 0 0.410645 2.33079 0.410645 5.16431V36.8357C0.410645 39.6692 2.74144 42 5.57495 42H28.4259C31.2594 42 33.5902 39.6692 33.5902 36.8357V9.64309C33.5902 9.55169 33.5445 9.41458 33.5445 9.32318ZM25.7295 3.10773L30.8024 8.82046H25.7295V3.10773ZM31.8535 36.79C31.8535 38.7095 30.3454 40.2633 28.4259 40.2633H5.57495C3.65548 40.2633 2.14731 38.7095 2.14731 36.8357V5.11861C2.14731 3.19913 3.70118 1.69097 5.57495 1.69097H23.9928V9.64309C23.9928 10.1001 24.3584 10.5114 24.8611 10.5114H31.8535V36.79Z" fill="#007BFF"/>
<path d="M6.58 10.5101H14.2122C14.6692 10.5101 15.0806 10.1445 15.0806 9.64177C15.0806 9.13905 14.7149 8.77344 14.2122 8.77344H6.58C6.12299 8.77344 5.71167 9.13905 5.71167 9.64177C5.71167 10.1445 6.12299 10.5101 6.58 10.5101Z" fill="#007BFF"/>
<path d="M14.2122 31.4863H6.58C6.12299 31.4863 5.71167 31.8519 5.71167 32.3547C5.71167 32.8117 6.07728 33.223 6.58 33.223H14.2122C14.6692 33.223 15.0806 32.8574 15.0806 32.3547C15.0806 31.8976 14.6692 31.4863 14.2122 31.4863Z" fill="#007BFF"/>
<path d="M5.71167 15.4015C5.71167 15.8586 6.07728 16.2699 6.58 16.2699H26.963C27.42 16.2699 27.8314 15.9043 27.8314 15.4015C27.8314 14.9445 27.4658 14.5332 26.963 14.5332H6.58C6.12299 14.5332 5.71167 14.8988 5.71167 15.4015Z" fill="#007BFF"/>
<path d="M26.963 18.8281H6.58C6.12299 18.8281 5.71167 19.1937 5.71167 19.6965C5.71167 20.1535 6.07728 20.5648 6.58 20.5648H26.963C27.42 20.5648 27.8314 20.1992 27.8314 19.6965C27.8314 19.1937 27.4658 18.8281 26.963 18.8281Z" fill="#007BFF"/>
<path d="M26.963 23.0801H6.58C6.12299 23.0801 5.71167 23.4457 5.71167 23.9484C5.71167 24.4054 6.07728 24.8167 6.58 24.8167H26.963C27.42 24.8167 27.8314 24.4511 27.8314 23.9484C27.8314 23.4457 27.4658 23.0801 26.963 23.0801Z" fill="#007BFF"/>
<path d="M26.963 27.3301H6.58C6.12299 27.3301 5.71167 27.6957 5.71167 28.1984C5.71167 28.6554 6.07728 29.0667 6.58 29.0667H26.963C27.42 29.0667 27.8314 28.7011 27.8314 28.1984C27.8314 27.7414 27.4658 27.3301 26.963 27.3301Z" fill="#007BFF"/>
</svg>
