<svg width="24" height="24" viewBox="0 0 24 24" fill="none" xmlns="http://www.w3.org/2000/svg">
<path fill-rule="evenodd" clip-rule="evenodd" d="M14.0477 6.10474V3H6.73337C5.78566 3 5 3.78099 5 4.72856V19.2714C5 20.2191 5.78566 21 6.73337 21H17.1715C18.1191 21 18.9047 20.219 18.9047 19.2714V8.09518H16.0428C14.9381 8.09518 14.0477 7.20474 14.0477 6.10474ZM16.2523 18.0952C16.2523 18.3048 16.0809 18.4762 15.8714 18.4762H8.03333C7.82376 18.4762 7.65237 18.3048 7.65237 18.0952C7.65237 17.8857 7.82376 17.7143 8.03333 17.7143H15.8762C16.0858 17.7143 16.2523 17.8858 16.2523 18.0952ZM15.9381 10.8666L11.6905 15.1286C11.6476 15.1715 11.5952 15.2047 11.5333 15.2238L8.8286 16.0762L8.8266 16.0767C8.78909 16.086 8.75171 16.0953 8.7142 16.0953C8.61423 16.0953 8.51906 16.0571 8.44284 15.9857C8.34287 15.8857 8.30469 15.7381 8.34753 15.5999L9.19994 12.8952C9.21903 12.8381 9.2524 12.7857 9.29524 12.7381L13.5571 8.49042C13.7047 8.34279 13.9477 8.34279 14.0952 8.49042L15.9333 10.3286C16.0858 10.481 16.0858 10.719 15.9381 10.8666ZM18.3814 7.33351H16.0434C15.3576 7.33351 14.8101 6.78598 14.8101 6.10496V3.58594L18.3814 7.33351ZM11.4192 14.3241L10.105 13.0098L13.8288 9.30029L15.1288 10.6002L11.4192 14.3241ZM10.7059 14.6861L9.29639 15.1337L9.74408 13.7241L10.7059 14.6861Z" fill="white"/>
</svg>
