<svg width="10" height="7" viewBox="0 0 10 7" fill="none" xmlns="http://www.w3.org/2000/svg">
<path fill-rule="evenodd" clip-rule="evenodd" d="M0.0188324 2.97402C0.836412 1.21733 2.6162 0 4.68124 0C6.74628 0 8.52608 1.21733 9.34366 2.97402C9.36877 3.02826 9.36877 3.09053 9.34366 3.14376C8.52608 4.90045 6.74627 6.11778 4.68124 6.11778C2.61621 6.11778 0.836412 4.90044 0.0188324 3.14376C-0.00627748 3.08953 -0.00627748 3.02725 0.0188324 2.97402ZM2.57101 3.05939C2.57101 4.22449 3.51514 5.16964 4.68124 5.16964C5.84634 5.16964 6.79148 4.22449 6.79148 3.05939C6.79148 1.89429 5.84735 0.949155 4.68124 0.949155C3.51614 0.949155 2.57101 1.89329 2.57101 3.05939ZM6.03214 3.05847C6.03214 3.80456 5.42732 4.40938 4.68123 4.40938C3.93514 4.40938 3.33032 3.80456 3.33032 3.05847C3.33032 2.31238 3.93514 1.70755 4.68123 1.70755C5.42732 1.70755 6.03214 2.31238 6.03214 3.05847Z" fill="#525252"/>
</svg>
