<?xml version="1.0" encoding="utf-8"?>
<!-- Generator: Adobe Illustrator 16.0.0, SVG Export Plug-In . SVG Version: 6.00 Build 0)  -->
<!DOCTYPE svg PUBLIC "-//W3C//DTD SVG 1.1//EN" "http://www.w3.org/Graphics/SVG/1.1/DTD/svg11.dtd">
<svg version="1.1" id="Layer_1" xmlns="http://www.w3.org/2000/svg" xmlns:xlink="http://www.w3.org/1999/xlink" x="0px" y="0px"
	 width="400px" height="400px" viewBox="0 0 400 400" enable-background="new 0 0 400 400" xml:space="preserve">
<g>
	<path fill-rule="evenodd" clip-rule="evenodd" fill="#42545C" d="M199.693,388.911c-104-0.109-188.558-84.7-188.634-188.712
		C10.982,96.159,95.91,10.84,199.3,11.089c105.476,0.252,189.88,84.697,189.595,189.684
		C388.615,304.674,303.79,389.022,199.693,388.911z M204.394,306.373c0-0.022,0-0.046,0-0.072c19.909,0,39.825,0.296,59.727-0.09
		c15.902-0.314,31.85-5.879,34.565-22.132c4.214-25.229,4.216-51.428-10.792-74.493c-11.981-18.416-28.13-21.97-47.444-10.285
		c-24.471,14.804-48.376,14.24-72.568-0.727c-17.563-10.869-34.746-8.722-44.138,9.405c-8.281,15.981-13.402,34.673-15.295,52.655
		c-3.333,31.712,10.411,45.198,41.994,45.684C168.42,306.597,186.408,306.373,204.394,306.373z M205.727,95.88
		c-31.772-0.098-54.002,21.391-53.628,51.847c0.36,29.096,23.811,52.296,52.777,52.205c28.986-0.091,52.521-23.414,52.78-52.314
		C257.924,118.025,235.791,95.975,205.727,95.88z"/>
	<path fill-rule="evenodd" clip-rule="evenodd" fill="#FFFFFF" d="M204.394,306.373c-17.985,0-35.974,0.224-53.952-0.055
		c-31.583-0.485-45.327-13.972-41.994-45.684c1.893-17.982,7.014-36.674,15.295-52.655c9.393-18.127,26.575-20.274,44.138-9.405
		c24.192,14.967,48.098,15.53,72.568,0.727c19.314-11.685,35.463-8.131,47.444,10.285c15.008,23.065,15.006,49.265,10.792,74.493
		c-2.716,16.253-18.663,21.817-34.565,22.132c-19.901,0.386-39.817,0.09-59.727,0.09
		C204.394,306.327,204.394,306.351,204.394,306.373z"/>
	<path fill-rule="evenodd" clip-rule="evenodd" fill="#FFFFFF" d="M205.727,95.88c30.064,0.094,52.197,22.145,51.93,51.738
		c-0.26,28.9-23.794,52.224-52.78,52.314c-28.967,0.091-52.417-23.109-52.777-52.205C151.725,117.271,173.954,95.783,205.727,95.88z
		"/>
</g>
</svg>
