<svg width="17" height="15" viewBox="0 0 17 15" fill="none" xmlns="http://www.w3.org/2000/svg">
<path id="Vector" d="M15.8591 12.097C15.8491 12.0877 15.8381 12.0828 15.8291 12.0749L13.0485 9.34201L12.3469 8.6528C13.0638 7.07512 13.0675 5.19336 12.1909 3.54966C10.6937 0.745864 7.19463 -0.318449 4.39071 1.17784C4.3314 1.2092 4.27552 1.24483 4.21767 1.27863C3.31346 1.80188 2.60034 2.53611 2.11138 3.38773C1.78642 3.22092 1.55116 3.0762 1.51736 3.0546C1.5492 3.07535 1.52748 3.05558 1.48746 3.02715C1.45854 3.00298 1.42584 2.98419 1.39008 2.96833C1.37666 2.9615 1.36214 2.95576 1.35055 2.95186C1.31967 2.94221 1.28782 2.93843 1.25695 2.93746C1.24926 2.93648 1.24353 2.93697 1.23474 2.93697C1.20777 2.93746 1.18081 2.94026 1.15469 2.94612C1.15176 2.9471 1.14896 2.9471 1.14603 2.94807C1.01973 2.97943 0.911739 3.07339 0.870738 3.20848C0.854875 3.25814 0.851946 3.30878 0.856339 3.35796C0.856339 3.35796 0.854875 3.35942 0.855851 3.35991C0.855851 3.35991 0.855851 3.35991 0.855851 3.36089C0.856827 3.40421 0.861586 3.45058 0.873178 3.49975L1.37422 5.65437L1.5309 6.33088L1.67025 6.92784L1.71504 7.11966C1.80668 7.51808 2.12688 7.61533 2.42584 7.33577L3.0932 6.71234L3.28222 6.53491L3.717 6.12844L5.05368 4.87816L5.13995 4.79763C5.15008 4.78798 5.15691 4.77834 5.16545 4.7687L5.22146 4.71367L5.21756 4.71269C5.25234 4.67316 5.28223 4.62789 5.29858 4.5748C5.30298 4.56077 5.30444 4.54686 5.30725 4.53332C5.33324 4.43008 5.31298 4.33185 5.24843 4.24887C5.20072 4.17798 5.1308 4.1216 5.04294 4.095C5.04294 4.095 4.52323 4.13112 3.77582 3.98164C3.94849 3.73002 4.14995 3.49658 4.37948 3.28584C4.62341 3.06265 4.89834 2.86497 5.20304 2.70243C5.77497 2.39773 6.3873 2.24532 6.9939 2.22995C8.4742 2.19188 9.92265 2.97053 10.6662 4.36358C11.6073 6.12832 11.1011 8.28465 9.56389 9.46452C9.51044 9.50503 9.45687 9.54506 9.40196 9.58325C9.38073 9.59765 9.3595 9.61205 9.33839 9.62621C9.32496 9.63585 9.31044 9.64451 9.29592 9.65366C9.22356 9.70052 9.14827 9.74335 9.07212 9.7863C7.96791 10.3953 6.59475 10.4816 5.3729 9.8954C5.21378 9.81864 5.06234 9.73139 4.91774 9.63694C4.87625 9.60985 4.83427 9.58203 4.79339 9.55299C4.7635 9.54335 4.73263 9.53652 4.69931 9.53652C4.64477 9.53749 4.59474 9.55348 4.55178 9.57983L4.49626 9.62376L3.61291 10.3124L3.51175 10.3909C3.47026 10.4411 3.44513 10.5043 3.44513 10.5747C3.4461 10.6339 3.46441 10.6891 3.49528 10.7348C3.5386 10.7701 3.58302 10.8052 3.62743 10.8394C3.93311 11.0733 4.26575 11.28 4.62597 11.4527C5.89956 12.0642 7.28725 12.1629 8.55827 11.8346C8.56206 11.8346 8.56596 11.8366 8.57084 11.8366C8.62478 11.8221 8.67944 11.8077 8.73289 11.7923C9.10214 11.6842 9.46578 11.5386 9.81868 11.3506C9.96084 11.2744 10.0974 11.1919 10.2314 11.1057C10.2497 11.0941 10.2686 11.0826 10.2869 11.0704C10.3259 11.0449 10.3635 11.0178 10.4021 10.9918C10.4155 10.9823 10.4284 10.9728 10.4417 10.9635L11.0325 11.5453L13.7251 14.1897C13.7311 14.1958 13.7361 14.2061 13.7422 14.2128C14.203 14.6716 15.0475 14.5699 15.6302 13.985C16.2149 13.401 16.3168 12.5547 15.8591 12.097Z" fill="white"/>
</svg>
