<?xml version="1.0" encoding="utf-8"?>
<!-- Generator: Adobe Illustrator 16.0.0, SVG Export Plug-In . SVG Version: 6.00 Build 0)  -->
<!DOCTYPE svg PUBLIC "-//W3C//DTD SVG 1.1//EN" "http://www.w3.org/Graphics/SVG/1.1/DTD/svg11.dtd">
<svg version="1.1" xmlns="http://www.w3.org/2000/svg" xmlns:xlink="http://www.w3.org/1999/xlink" x="0px" y="0px" width="400px"
	 height="400px" viewBox="0 0 400 400" enable-background="new 0 0 400 400" xml:space="preserve">
<g id="Layer_1" display="none">
	<g id="Layer_1_1_">
		<path display="inline" d="M133.625,199.478c-29.327-26.012-43.421-57.672-39.971-95.929c2.522-27.971,14.997-51.471,35.894-70.336
			c41.072-37.078,103.748-37.179,144.82,0.019c24.705,22.374,37.122,50.438,36.349,83.861c-0.767,33.102-15.018,60.007-39.266,81.31
			c10.822,2.998,21.839,4.724,31.738,9.021c42.822,18.587,66.061,51.475,67.882,98.315c0.948,24.374,0.263,48.813,0.19,73.226
			c-0.024,9.188-4.634,13.668-13.975,13.672c-103.555,0.032-207.106,0.03-310.659,0.006c-8.996-0.002-13.922-4.453-13.944-13.111
			c-0.069-25.984-0.66-51.997,0.35-77.946c2.037-52.382,44.133-96.308,96.182-101.493
			C130.326,199.98,131.428,199.787,133.625,199.478z M55.776,367.764c98.178,0,194.654,0,291.25,0
			c0-22.154,0.907-43.828-0.229-65.394c-1.422-26.917-14.168-48.319-36.159-63.962c-13.664-9.721-29.046-14.994-45.811-15.069
			c-42.313-0.19-84.641-0.733-126.931,0.257c-38.932,0.912-72.433,28.37-78.566,66.678
			C55.293,315.475,56.782,341.559,55.776,367.764z M202.09,29.706c-46.486-0.048-84.702,37.925-84.874,84.335
			c-0.171,46.3,38.048,84.784,84.354,84.936c46.664,0.152,85.181-38.158,85.181-84.729C286.752,67.843,248.607,29.753,202.09,29.706
			z"/>
	</g>
	<g id="Layer_2">
		<g display="inline">
			<path d="M318.791,163.754c7.793,0,14.645-0.056,21.495,0.014c10.35,0.106,14.682,4.444,14.686,14.731
				c0.023,66.933,0.029,133.864,0.023,200.795c0,9.341-4.703,13.931-14.281,13.931c-63.399,0.01-126.797-0.004-190.198-0.007
				c-31.209-0.002-62.418,0.031-93.626-0.014c-11.573-0.019-15.465-4.022-15.468-15.66c-0.02-66.146-0.03-132.293-0.042-198.439
				c-0.001-11.004,4.316-15.334,15.308-15.353c6.655-0.012,13.309-0.002,20.935-0.002c0-2.836-0.105-5.298,0.017-7.748
				c0.912-18.182-0.265-36.78,3.204-54.464C91.852,45.396,144.586,5.201,202.311,7.07C259.568,8.923,309.117,52.693,317.178,109
				c1.411,9.849,1.271,19.938,1.565,29.924C318.98,146.93,318.791,154.948,318.791,163.754z M65.82,188.497
				c0,60.337,0,120.106,0,180.042c88.454,0,176.487,0,264.842,0c0-60.146,0-119.911,0-180.042
				C242.313,188.497,154.272,188.497,65.82,188.497z M100.723,163.248c65.667,0,129.69,0,194.718,0
				c-0.742-17.796,0.186-35.276-2.5-52.181c-7.285-45.841-47.291-79.182-93.59-79.756c-46.343-0.573-87.082,31.696-95.342,77.514
				C100.841,126.399,101.719,144.703,100.723,163.248z"/>
			<path d="M196.419,248.374c12.222,0.127,21.067,6.521,24.462,16.17c3.453,9.808,0.501,19.718-7.354,26.587
				c-1.741,1.523-2.887,4.346-3.221,6.725c-0.537,3.851,0.018,7.838-0.24,11.748c-0.438,6.643-5.527,11.127-12.142,11
				c-6.316-0.125-11.087-4.599-11.627-10.959c-0.117-1.365-0.125-2.75-0.061-4.119c0.319-6.877-0.053-12.724-6.229-18.2
				c-7.371-6.538-7.726-16.083-3.559-25.034C180.735,253.087,188.437,248.669,196.419,248.374z"/>
		</g>
	</g>
	<g id="Layer_3">
		<path display="inline" d="M342.885,154.163C341.762,216,319.77,270.158,282.152,318.477
			c-21.396,27.483-46.295,51.373-74.867,71.354c-9.002,6.295-12.111,6.45-20.775,0.123
			c-59.383-43.366-104.341-97.655-125.39-169.241c-10.078-34.276-14.158-69.301-5.539-104.762
			C69.942,56.876,122.152,11.907,182.824,6.296C269.902-1.756,344.196,66.879,342.885,154.163z M196.708,367.391
			c0.805-0.396,1.381-0.572,1.825-0.916c46.064-35.56,82.841-78.48,104.32-133.203c12.514-31.886,18.832-65.012,14.194-99.268
			c-7.517-55.524-54.741-99.977-109.071-103.699c-59.29-4.061-111.229,31.301-127.503,86.892
			c-8.258,28.206-5.498,56.431,0.886,84.411c10.591,46.426,34.353,85.875,65.903,120.937
			C162.22,339.167,178.566,354.314,196.708,367.391z"/>
		<path display="inline" d="M257.677,151.183c-0.112,34.283-27.284,61.073-61.694,60.831c-32.741-0.232-59.843-27.719-59.647-60.498
			c0.204-34.335,27.338-61.098,61.708-60.863C230.746,90.877,257.785,118.325,257.677,151.183z M160.507,151.638
			c0.174,20.001,17.053,36.469,37.112,36.208c19.681-0.255,36.21-17.198,35.906-36.803c-0.31-19.939-16.865-36.356-36.506-36.199
			C176.811,115.007,160.332,131.612,160.507,151.638z"/>
	</g>
	<g id="Layer_4">
		<path display="inline" d="M128.748,83.068c1.348-11.369,4.19-21.55,10.522-30.476c8.196-11.552,19.791-17.917,33.272-20.937
			c16.637-3.726,33.493-3.722,50.187-0.695c27.209,4.933,42.574,21.482,46.695,49.334c0.113,0.76,0.206,1.524,0.374,2.773
			c1.64,0,3.179-0.009,4.716,0.001c19.471,0.121,38.991-0.595,58.399,0.563c29.462,1.758,52.444,26.424,52.596,55.98
			c0.29,57.636,0.324,115.276-0.021,172.913c-0.193,32.039-25.709,56.281-58.387,56.305c-85.141,0.059-170.28,0.009-255.419,0.038
			c-7.716,0.001-15.15-1.21-22.365-3.991c-20.396-7.857-35.44-28.327-35.588-50.137c-0.323-47.766-0.162-95.533-0.182-143.301
			c-0.006-11.449-0.173-22.902,0.126-34.343c0.728-27.733,22.811-51.64,50.58-53.35c19.667-1.211,39.453-0.521,59.186-0.676
			C125.118,83.057,126.798,83.068,128.748,83.068z M35.302,209.434c0,1.734,0,3.027,0,4.319c0,32.245-0.028,64.491,0.012,96.738
			c0.027,21.434,15.098,36.53,36.554,36.538c84.893,0.033,169.786,0.031,254.681,0.002c21.645-0.008,36.631-15.114,36.65-36.84
			c0.025-32.117,0.006-64.231,0.006-96.346c0-1.406,0-2.813,0-4.375c-10.771,0-20.99,0-31.76,0c0,1.694,0,3.232,0,4.771
			c0,15.793,0.022,31.588-0.012,47.382c-0.019,8.606-3.998,12.702-12.466,12.729c-16.321,0.054-32.642,0.062-48.963-0.004
			c-8.137-0.031-12.284-4.33-12.297-12.531c-0.019-16.06-0.005-32.117-0.005-48.174c0-1.379,0-2.76,0-4.012
			c-39.506,0-78.38,0-117.522,0c0,1.752,0,3.188,0,4.62c0,15.793,0.016,31.588-0.008,47.382
			c-0.012,8.719-4.021,12.707-12.844,12.725c-16.058,0.035-32.115,0.041-48.172-0.002c-8.522-0.023-12.618-4.133-12.626-12.555
			c-0.018-16.057-0.005-32.113-0.005-48.172c0-1.378,0-2.756,0-4.199C55.877,209.434,45.893,209.434,35.302,209.434z
			 M35.302,187.748c109.703,0,218.86,0,328.354,0c0-1.533,0-2.821,0-4.109c0-14.08,0.021-28.161-0.006-42.241
			c-0.042-21.406-15.12-36.392-36.604-36.393c-64.74-0.004-129.483-0.002-194.226-0.002c-20.66,0-41.319-0.029-61.979,0.009
			c-19.041,0.036-33.797,13.34-35.273,32.315c-0.641,8.243-0.233,16.568-0.261,24.856C35.28,170.585,35.302,178.988,35.302,187.748z
			 M151.238,82.733c32.072,0,64.149,0,96.239,0c-0.584-13.468-8.502-23.977-21.176-28.306c-10.127-3.459-20.635-3.576-31.162-3.391
			c-8.572,0.151-17.055,0.937-25.103,4.198C158.62,59.86,150.698,71.455,151.238,82.733z M309.338,252.438
			c0-14.264,0-28.484,0-42.838c-9.893,0-19.666,0-29.39,0c0,14.424,0,28.557,0,42.838
			C289.831,252.438,299.406,252.438,309.338,252.438z M88.605,209.532c0,14.344,0,28.466,0,42.747c9.973,0,19.72,0,29.537,0
			c0-14.432,0-28.557,0-42.747C108.181,209.532,98.509,209.532,88.605,209.532z"/>
	</g>
	<g id="Layer_5">
		<g display="inline">
			<path d="M203.454,392.549c-39.588,0-79.178,0.086-118.767-0.027c-26.316-0.078-47.209-16.578-53.228-41.979
				c-1.028-4.337-1.368-8.926-1.375-13.399C29.993,285.432,30.067,233.719,30,182.009c-0.02-15.514,5.482-28.689,16.267-39.661
				c9.852-10.023,19.928-19.824,29.792-29.833c0.918-0.931,1.416-2.649,1.445-4.017c0.145-6.832,0.004-13.667,0.082-20.502
				c0.237-20.876,15.685-36.312,36.546-36.533c5.802-0.061,11.624-0.293,17.403,0.083c4.141,0.271,6.925-1.198,9.709-4.109
				c7.573-7.92,15.42-15.58,23.198-23.304c22.847-22.688,54.544-22.859,77.611-0.413c7.396,7.194,15.04,14.166,21.973,21.783
				c4.314,4.742,8.901,6.502,15.179,6.075c6.399-0.436,12.921-0.313,19.3,0.383c17.508,1.908,30.809,16.702,31.189,34.319
				c0.162,7.477-0.063,14.961,0.134,22.435c0.036,1.413,0.905,3.105,1.923,4.146c10.55,10.784,21.492,21.196,31.746,32.249
				c8.704,9.384,13.225,20.945,13.26,33.789c0.146,53.644,0.313,107.291-0.027,160.935c-0.186,29.165-23.702,52.387-52.96,52.611
				c-40.104,0.308-80.208,0.076-120.313,0.076C203.454,392.532,203.454,392.54,203.454,392.549z M253.521,259.714
				c0.771-0.62,1.194-0.896,1.543-1.247c17.064-17.22,34.151-34.417,51.114-51.738c1.074-1.098,1.632-3.164,1.637-4.781
				c0.089-37.913,0.078-75.826,0.059-113.739c-0.004-9.931-5.912-15.855-15.919-15.859c-59.061-0.026-118.123-0.031-177.186,0.003
				c-10.252,0.006-16.302,6.167-16.308,16.444c-0.021,37.785-0.047,75.57,0.099,113.353c0.008,2.021,1.061,4.535,2.481,5.979
				c16.11,16.351,32.385,32.537,48.623,48.763c0.897,0.896,1.853,1.732,3.036,2.834c6.765-6.785,13.359-13.467,20.024-20.076
				c18.054-17.91,42.915-17.895,60.926,0.041C240.229,246.236,246.729,252.863,253.521,259.714z M333.01,370.02
				c-1.124-1.371-1.612-2.086-2.217-2.688c-37.546-37.562-75.057-75.155-112.682-112.636c-9.424-9.387-20.577-9.262-30.027,0.166
				c-37.417,37.324-74.762,74.725-112.121,112.106c-0.734,0.736-1.32,1.618-2.507,3.093c4.233,0.408,7.542,1.006,10.852,1.008
				c79.276,0.051,158.549,0.053,237.825-0.002C325.519,371.063,328.9,370.432,333.01,370.02z M350.397,355.51
				c2.824-4.511,4.668-9.641,4.668-15.314c0.004-49.487-0.019-98.977-0.046-148.463c-0.002-0.92-0.188-1.84-0.291-2.76
				c0.171,0.311,0.341,0.622,0.509,0.931c-28.753,28.211-57.507,56.424-86.033,84.414
				C296.438,301.552,323.381,328.494,350.397,355.51z M136.668,275.579c-28.16-28.677-56.312-57.347-84.878-86.437
				c-0.185,1.428-0.384,2.255-0.385,3.083c-0.013,48.751-0.03,97.503,0.021,146.255c0.006,6.254,1.811,12.041,5.2,17.147
				C83.679,328.574,110.561,301.689,136.668,275.579z M239.359,50.962c-4.828-4.799-8.892-8.854-12.973-12.889
				c-12.812-12.669-32.555-12.814-45.563-0.292c-3.713,3.576-7.314,7.27-10.931,10.942c-0.548,0.556-0.91,1.294-1.558,2.239
				C191.904,50.962,214.963,50.962,239.359,50.962z M76.961,140.78c-7.566,7.659-14.364,14.54-20.572,20.824
				c7.407,7.38,14.085,14.033,20.572,20.496C76.961,169.124,76.961,155.578,76.961,140.78z M330.505,142.069
				c-0.273,0.205-0.547,0.41-0.821,0.615c0,13.505,0,27.01,0,41.345c6.379-6.429,12.037-12.392,18.01-18.022
				c2.385-2.249,2.31-3.958,0.269-6.056C342.151,153.982,336.325,148.029,330.505,142.069z"/>
			<path d="M203.475,161.226c22.299,0.001,44.598-0.034,66.896,0.019c8.353,0.02,13.659,6.728,11.212,14.052
				c-1.448,4.334-4.639,6.674-9.082,7.36c-0.885,0.137-1.8,0.083-2.702,0.083c-44.467,0.003-88.935,0.011-133.403-0.005
				c-7.299-0.003-12.054-4.238-12.106-10.646c-0.053-6.563,4.756-10.85,12.291-10.857
				C158.877,161.213,181.176,161.225,203.475,161.226z"/>
			<path d="M203.169,131.259c-22.294-0.001-44.587,0.026-66.881-0.017c-7.669-0.015-12.401-4.627-11.971-11.45
				c0.331-5.246,4.412-9.379,9.688-9.795c0.77-0.061,1.546-0.051,2.318-0.051c44.587-0.001,89.175,0.024,133.762-0.037
				c4.815-0.006,8.595,1.508,10.862,5.881c3.414,6.584-0.803,14.547-8.201,15.288c-3.447,0.346-6.95,0.174-10.43,0.176
				C242.602,131.266,222.885,131.259,203.169,131.259z"/>
		</g>
	</g>
	<g id="Layer_6">
		<g display="inline">
			<path d="M65.779,199.876c0-45.489,0.054-90.978-0.026-136.465C65.72,44.6,72.546,29.195,87.773,17.883
				c8.523-6.333,18.203-9.942,28.845-9.969c53.115-0.13,106.231-0.37,159.343,0.009c30.175,0.215,52.044,23.643,52.218,54.898
				c0.146,25.875,0.032,51.753,0.032,77.629c0,65.237-0.06,130.473,0.04,195.709c0.024,16.823-5.232,31.265-17.906,42.612
				c-9.358,8.381-20.394,13.229-32.978,13.273c-53.114,0.184-106.229,0.127-159.344,0.109
				c-26.619-0.008-52.591-21.887-52.333-55.407C66.043,291.128,65.779,245.5,65.779,199.876z M305.328,268.695
				c0-58.395,0-116.573,0-174.731c-72.41,0-144.518,0-216.73,0c0,58.342,0,116.421,0,174.731
				C160.937,268.695,233.039,268.695,305.328,268.695z M305.561,291.924c-72.625,0-144.813,0-217.129,0
				c0,16.676-0.473,33.021,0.138,49.329c0.566,15.093,12.268,26.718,27.381,28.111c6.079,0.561,12.239,0.307,18.362,0.309
				c46.428,0.021,92.855,0.038,139.284-0.005c17.561-0.016,31.143-11.711,31.82-28.447
				C306.078,324.922,305.561,308.573,305.561,291.924z M87.915,70.628c73.143,0,145.313,0,217.713,0c0-3.195,0.015-6.04-0.003-8.884
				c-0.098-17.916-12.82-31.31-30.66-31.374c-51.994-0.186-103.992-0.151-155.989-0.01c-14.395,0.039-26.24,9.124-29.408,22.576
				C88.251,58.528,88.442,64.475,87.915,70.628z"/>
			<path d="M196.438,320.986c8.853,0,17.707-0.033,26.558,0.012c7.309,0.037,12.375,4.662,12.423,11.229
				c0.049,6.58-4.981,11.422-12.224,11.449c-17.842,0.071-35.683,0.071-53.524,0c-7.281-0.029-12.243-4.822-12.185-11.457
				c0.059-6.656,5.007-11.183,12.394-11.221C178.732,320.953,187.585,320.986,196.438,320.986z"/>
		</g>
	</g>
	<g id="Layer_7">
		<g display="inline">
			<path d="M12.997,199.935c0-0.623,0-1.247,0-1.87c1.881-2.212,3.858-4.35,5.628-6.648c36.166-46.952,83.191-76.262,141.572-87.025
				c8.22-1.516,16.559-2.395,24.842-3.569c9.973,0,19.947,0,29.92,0c2.748,0.365,5.491,0.771,8.245,1.089
				c61.538,7.125,112.269,34.333,152.072,81.837c3.961,4.728,7.818,9.542,11.726,14.315c0,0.623,0,1.247,0,1.87
				c-1.881,2.212-3.858,4.35-5.628,6.648c-36.164,46.955-83.183,76.273-141.571,87.025c-8.223,1.515-16.56,2.395-24.844,3.567
				c-9.975,0-19.947,0-29.92,0c-2.748-0.364-5.491-0.771-8.244-1.09c-61.539-7.124-112.271-34.331-152.074-81.835
				C20.76,209.523,16.903,204.709,12.997,199.935z M271.883,199.019c0.012-39.311-32.309-71.623-71.749-71.73
				c-39.356-0.106-71.882,32.168-72.017,71.46c-0.135,39.485,32.427,72.04,71.98,71.962
				C239.525,270.635,271.872,238.331,271.883,199.019z M118.602,253.843c-21.893-36.874-21.886-72.846-0.011-109.692
				c-28.946,13.136-52.628,31.198-72.544,54.862C66.053,222.702,89.701,240.783,118.602,253.843z M281.395,253.852
				c28.975-13.107,52.7-31.229,72.567-54.875c-20.146-23.75-43.762-41.839-72.565-54.813
				C303.268,181.079,303.27,216.963,281.395,253.852z"/>
			<path d="M186.767,150.941c20.606-6.555,44.476,2.909,56.12,21.935c12.069,19.721,9.069,45.032-7.285,61.472
				c-16.261,16.348-41.647,19.488-61.479,7.611c-19.332-11.577-28.836-35.313-22.234-56.582c5.898,9.29,13.875,14.436,24.848,13.747
				c6.84-0.43,12.584-3.301,17.153-8.399C204.42,178.974,201.801,163.749,186.767,150.941z"/>
		</g>
	</g>
	<g id="Layer_8" display="inline">
		<path d="M388.942,336.217c-0.324,0.51-0.646,1.02-0.975,1.527c-2.104,3.257-5.284,4.581-8.85,3.686
			c-3.419-0.859-5.522-3.72-5.715-7.647c-0.431-8.83-0.342-17.728-1.434-26.476c-5.864-46.983-43.563-88.373-90.065-98.586
			c-9.524-2.092-19.459-3.207-29.209-3.244c-69.976-0.27-139.95-0.145-209.925-0.146c-1.1,0-2.199,0-4.402,0
			c1.571,1.61,2.494,2.606,3.468,3.55c40.578,39.238,81.161,78.473,121.741,117.709c0.884,0.854,1.814,1.678,2.583,2.628
			c2.435,3.015,2.259,7.359-0.337,10.124c-2.613,2.785-6.903,3.243-10.078,1.021c-0.8-0.561-1.501-1.271-2.208-1.952
			c-46.546-44.919-93.09-89.841-139.621-134.776c-1.03-0.994-1.91-2.143-2.859-3.219c0-1.969,0-3.937,0-5.905
			c2.106-2.192,4.144-4.454,6.327-6.564c44.922-43.422,89.86-86.828,134.801-130.232c1.148-1.109,2.261-2.291,3.553-3.21
			c3.182-2.264,7.46-1.763,10.069,1.035c2.6,2.789,2.798,7.113,0.375,10.128c-0.843,1.049-1.866,1.956-2.838,2.895
			c-40.503,39.146-81.009,78.289-121.529,117.417c-0.956,0.923-2.082,1.669-3.128,2.497c0.14,0.367,0.281,0.734,0.421,1.101
			c1.383,0,2.766,0,4.148,0c69.612,0,139.224-0.044,208.836,0.018c39.379,0.036,73.019,14.003,100.15,42.625
			c21.167,22.325,33.111,49.063,36.067,79.747c0.094,0.962,0.416,1.897,0.632,2.847
			C388.942,321.948,388.942,329.083,388.942,336.217z"/>
	</g>
</g>
<g id="Layer_2_1_" display="none">
	<path display="inline" fill-rule="evenodd" clip-rule="evenodd" d="M199.698,209.86c1.67-1.595,3.001-2.817,4.278-4.095
		c37.004-36.985,73.996-73.982,111.004-110.965c16.709-16.698,38.092-16.711,54.769-0.064c3.773,3.768,7.595,7.488,11.289,11.332
		c13.307,13.846,13.708,35.049,0.964,49.437c-1.324,1.495-2.762,2.891-4.176,4.304c-49.25,49.246-98.907,98.096-147.526,147.956
		c-15.899,16.305-45.258,16.21-61.136-0.09c-49.059-50.362-99.212-99.658-148.906-149.402c-13.21-13.225-16.447-31.767-6.243-45.85
		c6.636-9.158,15.049-17.557,24.16-24.268c13.574-9.998,32.301-7.225,44.797,5.036c13.438,13.187,26.659,26.595,39.972,39.908
		C148.39,158.545,173.832,183.992,199.698,209.86z"/>
</g>
<g id="Layer_3_1_" display="none">
	<g display="inline">
		<path fill-rule="evenodd" clip-rule="evenodd" d="M392,383.397c-128.595,0-256.729,0-385.166,0c0-111.29,0-222.374,0-333.977
			c39.537,0,78.979,0,119.038,0c0-10.855,0-21.219,0-31.794c5.802,0,10.988,0,16.74,0c0,10.348,0,20.725,0,31.363
			c17.198,0,33.835,0,50.83,0c0-10.488,0-20.751,0-31.302c5.633,0,10.914,0,16.595,0c0,10.327,0,20.585,0,31.208
			c15.966,0,31.542,0,47.579,0c0-10.428,0-20.684,0-31.216c5.747,0,11.037,0,16.759,0c0,10.373,0,20.632,0,31.493
			c39.404,0,78.388,0,117.626,0C392,160.873,392,271.966,392,383.397z M375.711,65.701c-33.755,0-67.084,0-100.862,0
			c0,10.572,0,20.832,0,31.282c-5.742,0-11.028,0-16.86,0c0-10.668,0-21.033,0-31.247c-16.008,0-31.466,0-47.32,0
			c0,10.604,0,20.859,0,31.195c-5.678,0-10.944,0-16.661,0c0-10.622,0-20.885,0-31.304c-17.236,0-34.012,0-51.367,0
			c0,10.591,0,20.947,0,31.416c-5.752,0-10.923,0-16.629,0c0-10.343,0-20.447,0-30.718c-34.456,0-68.373,0-102.414,0
			c0,81.998,0,163.725,0,245.583c117.48,0,234.688,0,352.114,0C375.711,229.781,375.711,147.879,375.711,65.701z M375.181,329.742
			c-117.377,0-234.416,0-351.623,0c0,12.388,0,24.517,0,36.902c117.259,0,234.282,0,351.623,0
			C375.181,354.364,375.181,342.241,375.181,329.742z"/>
		<path fill-rule="evenodd" clip-rule="evenodd" d="M215.16,240.495c0,10.443,0,20.594,0,31.111c-10.415,0-20.778,0-31.454,0
			c0-10.187,0-20.441,0-31.111C194.02,240.495,204.363,240.495,215.16,240.495z"/>
		<path fill-rule="evenodd" clip-rule="evenodd" d="M215.129,158.948c0,10.497,0,20.614,0,31.103c-10.481,0-20.812,0-31.439,0
			c0-10.335,0-20.563,0-31.103C194.1,158.948,204.438,158.948,215.129,158.948z"/>
		<path fill-rule="evenodd" clip-rule="evenodd" d="M134.084,240.362c0,10.616,0,20.859,0,31.354c-10.406,0-20.621,0-31.178,0
			c0-10.399,0-20.735,0-31.354C113.215,240.362,123.438,240.362,134.084,240.362z"/>
		<path fill-rule="evenodd" clip-rule="evenodd" d="M296.326,271.833c-10.497,0-20.602,0-31.028,0c0-10.479,0-20.826,0-31.463
			c10.228,0,20.447,0,31.028,0C296.326,250.787,296.326,261.11,296.326,271.833z"/>
		<path fill-rule="evenodd" clip-rule="evenodd" d="M134.122,158.865c0,10.575,0,20.715,0,31.205c-10.375,0-20.6,0-31.192,0
			c0-10.284,0-20.63,0-31.205C113.275,158.865,123.52,158.865,134.122,158.865z"/>
		<path fill-rule="evenodd" clip-rule="evenodd" d="M296.336,190.164c-10.407,0-20.637,0-31.112,0c0-10.456,0-20.707,0-31.242
			c10.286,0,20.524,0,31.112,0C296.336,169.236,296.336,179.57,296.336,190.164z"/>
	</g>
</g>
<g id="Layer_4_1_" display="none">
	<g display="inline">
		<path fill-rule="evenodd" clip-rule="evenodd" d="M385.837,393.565c-6.321-5.635-12.966-10.95-18.899-16.967
			c-14.303-14.509-28.331-29.29-42.327-44.098c-2.35-2.486-4.656-3.556-8.135-3.548c-47.64,0.121-95.28,0.121-142.92,0.072
			C94.761,328.943,26.808,270.94,14.379,193.224C0.454,106.143,58.455,23.997,145.271,8.076c7.589-1.392,15.387-2.331,23.085-2.309
			c24.659,0.069,49.54-1.272,73.929,1.503c52.435,5.964,92.342,33.124,119.954,77.967c15.703,25.5,23.024,53.595,23.063,83.492
			c0.096,74.186,0.032,148.374,0.032,222.559c0,1.111,0,2.222,0,3.333C385.502,394.269,385.669,393.918,385.837,393.565z
			 M369.001,355.108c0-2.26,0-3.355,0-4.454c-0.002-60.842,0.098-121.687-0.11-182.528c-0.03-8.843-0.932-17.782-2.433-26.505
			C354.879,74.315,294.837,23.264,226.502,22.494c-18.939-0.214-37.893-0.419-56.82,0.113c-10.12,0.285-20.382,1.289-30.261,3.436
			C53.195,44.796,3.598,137.631,35.676,219.749c21.959,56.216,74.67,92.644,135.003,92.894
			c50.941,0.214,101.884,0.075,152.826-0.011c2.98-0.006,5.032,0.86,7.091,3.001C343.019,328.558,355.582,341.35,369.001,355.108z"
			/>
		<path fill-rule="evenodd" clip-rule="evenodd" d="M287.093,137.846c-59.995,0-119.594,0-179.427,0c0-5.26,0-10.232,0-15.603
			c59.744,0,119.447,0,179.427,0C287.093,127.375,287.093,132.453,287.093,137.846z"/>
		<path fill-rule="evenodd" clip-rule="evenodd" d="M107.627,201.348c0-5.304,0-10.276,0-15.588c59.795,0,119.397,0,179.37,0
			c0,5.033,0,10.115,0,15.588C227.469,201.348,167.742,201.348,107.627,201.348z"/>
	</g>
</g>
<g id="Layer_5_1_">
	<path fill-rule="evenodd" clip-rule="evenodd" d="M252.394,290.577c-72.958,50.53-165.162,26.408-209.53-33.671
		C-0.93,197.606,3.517,114.448,53.919,61.73C106.024,7.232,187.756-1.865,249.796,39.603
		c64.161,42.887,89.802,134.329,43.653,208.011c1.08,0.723,2.586,1.416,3.688,2.517c27.612,27.542,55.252,55.059,82.734,82.731
		c16.85,16.965,9.605,44.997-13.164,51.107c-11.651,3.127-21.781-0.055-30.275-8.549c-27.072-27.068-54.146-54.135-81.193-81.229
		C254.129,293.081,253.277,291.713,252.394,290.577z M164.734,62.981c-56.751,0.06-102.749,46.139-102.733,102.917
		c0.016,56.805,46.019,102.736,102.852,102.686c56.847-0.047,102.806-46.021,102.769-102.805
		C267.585,109.055,221.411,62.921,164.734,62.981z"/>
</g>
</svg>
