<svg width="24" height="24" viewBox="0 0 24 24" fill="none" xmlns="http://www.w3.org/2000/svg">
<path fill-rule="evenodd" clip-rule="evenodd" d="M12.75 7.12402C12.75 4.87401 14.625 2.99902 16.875 2.99902C19.125 2.99902 21 4.87401 21 7.12402C21 9.37402 19.125 11.249 16.875 11.249C14.625 11.249 12.75 9.37402 12.75 7.12402ZM16.425 8.92402L19.425 5.92403C19.5 5.77402 19.5 5.47403 19.275 5.399C19.125 5.24899 18.9 5.24899 18.75 5.399L16.05 8.09901L14.85 6.89902C14.7 6.74901 14.475 6.74904 14.325 6.89902C14.175 7.04899 14.175 7.27399 14.325 7.42401L15.825 8.92402C15.9 8.99901 16.05 8.99901 16.125 8.99901C16.2 8.99901 16.35 8.99901 16.425 8.92402ZM18.75 19.124C18.75 20.1596 17.9105 20.999 16.875 20.999C15.8395 20.999 15 20.1596 15 19.124C15 18.0885 15.8395 17.249 16.875 17.249C17.9105 17.249 18.75 18.0885 18.75 19.124ZM9.375 20.999C10.4105 20.999 11.25 20.1596 11.25 19.124C11.25 18.0885 10.4105 17.249 9.375 17.249C8.33947 17.249 7.50001 18.0885 7.50001 19.124C7.50001 20.1596 8.33947 20.999 9.375 20.999ZM19.2 11.399C19.35 11.324 19.5 11.324 19.575 11.324C19.725 11.399 19.725 11.549 19.725 11.699L19.5 13.124C19.5 13.274 19.35 13.424 19.2 13.424L8.24999 14.924C8.55002 15.449 9.15 15.749 9.75001 15.749H18.375C18.6 15.749 18.75 15.899 18.75 16.124C18.75 16.349 18.6 16.499 18.375 16.499H9.75001C8.475 16.499 7.42502 15.599 7.12503 14.399L5.32503 5.24901H3.37501C3.15001 5.24901 3 5.099 3 4.874C3 4.649 3.15001 4.49903 3.37498 4.49903H5.62498C5.77499 4.49903 5.925 4.649 5.99999 4.79901L6.375 6.74899H11.625C11.85 6.74899 12 6.89901 12 7.12401C12 9.82401 14.175 11.999 16.875 11.999C17.7 11.999 18.525 11.774 19.2 11.399Z" fill="white"/>
</svg>
