<?xml version="1.0" encoding="utf-8"?>
<!-- Generator: Adobe Illustrator 16.0.0, SVG Export Plug-In . SVG Version: 6.00 Build 0)  -->
<!DOCTYPE svg PUBLIC "-//W3C//DTD SVG 1.1//EN" "http://www.w3.org/Graphics/SVG/1.1/DTD/svg11.dtd">
<svg version="1.1" id="Layer_2" xmlns="http://www.w3.org/2000/svg" xmlns:xlink="http://www.w3.org/1999/xlink" x="0px" y="0px"
	 width="400px" height="400px" viewBox="100 100 400 400" enable-background="new 100 100 400 400" xml:space="preserve">
<path fill-rule="evenodd" clip-rule="evenodd" d="M117.186,300.468c0.004-43.713,0.508-87.434-0.158-131.138
	c-0.517-33.959,14.225-52.271,49.115-52.28c88.885-0.016,177.771,0.112,266.653-0.085c34.611-0.085,50.399,17.039,50.279,51.237
	c-0.307,87.425-0.443,174.859,0.065,262.284c0.217,36.854-17.296,52.757-53.592,52.5c-85.964-0.604-171.941-0.717-257.905,0.044
	c-38.836,0.341-55.824-17.125-54.735-55.797C118.104,385.014,117.181,342.728,117.186,300.468z M302.601,458.056
	c39.267,0,78.594-1.297,117.789,0.443c27.702,1.232,38.06-7.436,38.06-36.774c0-89.854-0.786-171.134,0.203-244.333
	c0.346-25.648-7.103-36.563-34.557-36.127c-82.882,1.324-165.801,1.017-248.696,0.136c-23.727-0.256-34.129,7.063-33.831,32.302
	c1.004,84.341,1.034,168.717-0.004,253.059c-0.321,25.939,11.393,32.191,34.51,31.603
	C218.224,457.27,260.421,458.048,302.601,458.056z"/>
</svg>
