<?xml version="1.0" encoding="utf-8"?>
<!-- Generator: Adobe Illustrator 16.0.0, SVG Export Plug-In . SVG Version: 6.00 Build 0)  -->
<!DOCTYPE svg PUBLIC "-//W3C//DTD SVG 1.1//EN" "http://www.w3.org/Graphics/SVG/1.1/DTD/svg11.dtd">
<svg version="1.1" id="Layer_1" xmlns="http://www.w3.org/2000/svg" xmlns:xlink="http://www.w3.org/1999/xlink" x="0px" y="0px"
	 width="400px" height="400px" viewBox="0 0 400 400" enable-background="new 0 0 400 400" xml:space="preserve">
<g id="Layer_1_4_" display="none">
	<g id="Layer_1_3_" display="inline">
		<g id="Layer_1_2_">
			<g id="Layer_1_1_">
				<path d="M133.625,199.478c-29.327-26.012-43.421-57.672-39.971-95.929c2.522-27.971,14.997-51.471,35.894-70.336
					c41.072-37.078,103.748-37.179,144.82,0.019c24.705,22.374,37.122,50.438,36.349,83.861
					c-0.767,33.102-15.018,60.007-39.266,81.31c10.822,2.998,21.839,4.724,31.738,9.021c42.818,18.587,66.061,51.475,67.882,98.315
					c0.948,24.374,0.263,48.813,0.188,73.226c-0.021,9.188-4.634,13.668-13.975,13.672c-103.558,0.032-207.106,0.03-310.659,0.006
					c-8.996-0.002-13.922-4.453-13.944-13.107c-0.069-25.984-0.66-51.997,0.35-77.946c2.037-52.382,44.133-96.308,96.182-101.493
					C130.326,199.98,131.428,199.787,133.625,199.478z M55.776,367.764c98.178,0,194.654,0,291.25,0
					c0-22.154,0.903-43.828-0.229-65.394c-1.422-26.917-14.168-48.319-36.159-63.962c-13.663-9.721-29.046-14.994-45.811-15.069
					c-42.313-0.19-84.641-0.733-126.931,0.257c-38.932,0.912-72.433,28.37-78.566,66.678
					C55.293,315.475,56.782,341.559,55.776,367.764z M202.09,29.706c-46.486-0.048-84.702,37.925-84.874,84.335
					c-0.171,46.3,38.048,84.784,84.354,84.936c46.664,0.152,85.181-38.158,85.181-84.729
					C286.752,67.843,248.607,29.753,202.09,29.706z"/>
			</g>
			<g id="Layer_2">
				<g>
					<path d="M318.791,163.754c7.793,0,14.645-0.056,21.495,0.014c10.35,0.106,14.682,4.444,14.686,14.731
						c0.023,66.933,0.029,133.864,0.023,200.795c0,9.341-4.703,13.931-14.281,13.931c-63.399,0.01-126.797-0.004-190.198-0.007
						c-31.209-0.002-62.418,0.031-93.626-0.014c-11.573-0.019-15.465-4.022-15.468-15.66c-0.02-66.146-0.03-132.293-0.042-198.439
						c-0.001-11.004,4.316-15.334,15.308-15.353c6.655-0.012,13.309-0.002,20.935-0.002c0-2.836-0.105-5.298,0.017-7.748
						c0.912-18.182-0.265-36.78,3.204-54.464C91.852,45.396,144.586,5.201,202.311,7.07C259.568,8.923,309.117,52.693,317.178,109
						c1.411,9.849,1.271,19.938,1.565,29.924C318.98,146.93,318.791,154.948,318.791,163.754z M65.82,188.497
						c0,60.337,0,120.106,0,180.042c88.454,0,176.487,0,264.842,0c0-60.146,0-119.911,0-180.042
						C242.313,188.497,154.272,188.497,65.82,188.497z M100.723,163.248c65.667,0,129.69,0,194.718,0
						c-0.742-17.796,0.186-35.276-2.5-52.181c-7.285-45.841-47.291-79.182-93.59-79.756c-46.343-0.573-87.082,31.696-95.342,77.514
						C100.841,126.399,101.719,144.703,100.723,163.248z"/>
					<path d="M196.419,248.374c12.222,0.127,21.067,6.521,24.462,16.17c3.453,9.808,0.501,19.718-7.354,26.587
						c-1.741,1.523-2.887,4.346-3.221,6.725c-0.537,3.854,0.018,7.838-0.24,11.748c-0.438,6.646-5.527,11.127-12.146,11
						c-6.316-0.125-11.087-4.599-11.627-10.959c-0.117-1.361-0.125-2.75-0.061-4.119c0.319-6.877-0.053-12.723-6.229-18.196
						c-7.371-6.538-7.726-16.083-3.559-25.034C180.735,253.087,188.437,248.669,196.419,248.374z"/>
				</g>
			</g>
			<g id="Layer_3">
				<path d="M342.885,154.163C341.762,216,319.77,270.158,282.152,318.477c-21.396,27.483-46.295,51.373-74.867,71.354
					c-9.002,6.295-12.111,6.45-20.775,0.123c-59.383-43.366-104.341-97.655-125.39-169.241
					c-10.078-34.276-14.158-69.301-5.539-104.762C69.942,56.876,122.152,11.907,182.824,6.296
					C269.902-1.756,344.196,66.879,342.885,154.163z M196.708,367.391c0.805-0.396,1.381-0.572,1.825-0.916
					c46.064-35.56,82.841-78.479,104.32-133.203c12.514-31.886,18.828-65.012,14.19-99.268
					c-7.517-55.524-54.737-99.977-109.067-103.699c-59.292-4.061-111.229,31.301-127.503,86.892
					c-8.258,28.206-5.498,56.431,0.886,84.41c10.591,46.428,34.353,85.875,65.903,120.938
					C162.22,339.167,178.566,354.314,196.708,367.391z"/>
				<path d="M257.677,151.183c-0.112,34.283-27.284,61.073-61.694,60.831c-32.741-0.229-59.843-27.719-59.647-60.498
					c0.204-34.335,27.338-61.098,61.708-60.863C230.746,90.877,257.785,118.325,257.677,151.183z M160.507,151.638
					c0.174,20.001,17.053,36.469,37.112,36.208c19.681-0.255,36.21-17.198,35.906-36.803c-0.313-19.939-16.865-36.356-36.506-36.199
					C176.811,115.007,160.332,131.612,160.507,151.638z"/>
			</g>
			<g id="Layer_4">
				<path d="M128.748,83.068c1.348-11.369,4.19-21.55,10.522-30.476c8.196-11.552,19.791-17.917,33.272-20.937
					c16.637-3.726,33.493-3.722,50.187-0.695c27.209,4.933,42.574,21.482,46.695,49.334c0.113,0.76,0.206,1.524,0.374,2.773
					c1.64,0,3.179-0.009,4.716,0.001c19.471,0.121,38.991-0.595,58.399,0.563c29.462,1.758,52.444,26.424,52.596,55.98
					c0.29,57.636,0.324,115.276-0.021,172.913c-0.193,32.039-25.709,56.281-58.391,56.309c-85.141,0.063-170.28,0.009-255.417,0.038
					c-7.716,0.001-15.15-1.21-22.365-3.991c-20.396-7.854-35.44-28.327-35.588-50.141c-0.323-47.766-0.162-95.529-0.182-143.297
					c-0.006-11.449-0.173-22.902,0.126-34.343c0.728-27.733,22.811-51.64,50.58-53.35c19.667-1.211,39.453-0.521,59.186-0.676
					C125.118,83.057,126.798,83.068,128.748,83.068z M35.302,209.434c0,1.734,0,3.027,0,4.319c0,32.245-0.028,64.491,0.012,96.738
					c0.027,21.434,15.098,36.53,36.554,36.538c84.893,0.033,169.786,0.031,254.681,0.002c21.646-0.008,36.631-15.114,36.65-36.84
					c0.021-32.117,0.006-64.231,0.006-96.346c0-1.406,0-2.813,0-4.375c-10.771,0-20.99,0-31.76,0c0,1.69,0,3.229,0,4.771
					c0,15.793,0.021,31.588-0.016,47.382c-0.019,8.605-3.998,12.702-12.466,12.729c-16.317,0.058-32.642,0.063-48.963-0.004
					c-8.138-0.031-12.282-4.33-12.297-12.531c-0.021-16.06-0.005-32.113-0.005-48.174c0-1.379,0-2.76,0-4.012
					c-39.51,0-78.38,0-117.522,0c0,1.752,0,3.188,0,4.62c0,15.793,0.016,31.588-0.008,47.382
					c-0.012,8.719-4.021,12.707-12.844,12.725c-16.058,0.035-32.115,0.041-48.172-0.002c-8.522-0.021-12.618-4.133-12.626-12.555
					c-0.018-16.057-0.005-32.113-0.005-48.172c0-1.378,0-2.756,0-4.199C55.877,209.434,45.893,209.434,35.302,209.434z
					 M35.302,187.748c109.703,0,218.86,0,328.354,0c0-1.533,0-2.821,0-4.109c0-14.08,0.021-28.161-0.006-42.241
					c-0.042-21.406-15.12-36.392-36.604-36.393c-64.739-0.004-129.483-0.002-194.226-0.002c-20.66,0-41.319-0.029-61.979,0.009
					c-19.041,0.036-33.797,13.34-35.273,32.315c-0.641,8.243-0.233,16.568-0.261,24.856
					C35.28,170.585,35.302,178.988,35.302,187.748z M151.238,82.733c32.072,0,64.149,0,96.239,0
					c-0.584-13.468-8.502-23.977-21.176-28.306c-10.127-3.459-20.635-3.576-31.162-3.391c-8.572,0.151-17.055,0.937-25.103,4.198
					C158.62,59.86,150.698,71.455,151.238,82.733z M309.338,252.438c0-14.264,0-28.48,0-42.838c-9.893,0-19.666,0-29.39,0
					c0,14.424,0,28.561,0,42.838C289.831,252.438,299.406,252.438,309.338,252.438z M88.605,209.532c0,14.344,0,28.466,0,42.747
					c9.973,0,19.72,0,29.537,0c0-14.432,0-28.557,0-42.747C108.181,209.532,98.509,209.532,88.605,209.532z"/>
			</g>
			<g id="Layer_5">
				<g>
					<path d="M203.454,392.549c-39.588,0-79.178,0.086-118.767-0.027c-26.316-0.078-47.209-16.578-53.228-41.979
						c-1.028-4.337-1.368-8.926-1.375-13.398C29.993,285.432,30.067,233.719,30,182.009c-0.02-15.514,5.482-28.689,16.267-39.661
						c9.852-10.023,19.928-19.824,29.792-29.833c0.918-0.931,1.416-2.649,1.445-4.017c0.145-6.832,0.004-13.667,0.082-20.502
						c0.237-20.876,15.685-36.312,36.546-36.533c5.802-0.061,11.624-0.293,17.403,0.083c4.141,0.271,6.925-1.198,9.709-4.109
						c7.573-7.92,15.42-15.58,23.198-23.304c22.847-22.688,54.544-22.859,77.611-0.413c7.396,7.194,15.04,14.166,21.973,21.783
						c4.314,4.742,8.901,6.502,15.183,6.075c6.396-0.436,12.921-0.313,19.3,0.383c17.508,1.908,30.813,16.702,31.189,34.319
						c0.161,7.477-0.063,14.961,0.134,22.435c0.036,1.413,0.905,3.105,1.923,4.146c10.55,10.784,21.492,21.196,31.746,32.249
						c8.704,9.384,13.225,20.945,13.26,33.789c0.146,53.644,0.313,107.291-0.023,160.935c-0.188,29.165-23.702,52.387-52.961,52.611
						c-40.104,0.308-80.207,0.076-120.313,0.076C203.454,392.532,203.454,392.54,203.454,392.549z M253.521,259.714
						c0.771-0.62,1.19-0.896,1.543-1.247c17.063-17.22,34.147-34.417,51.11-51.738c1.074-1.098,1.632-3.164,1.641-4.781
						c0.089-37.909,0.074-75.822,0.059-113.735c-0.004-9.931-5.912-15.855-15.919-15.859c-59.061-0.026-118.123-0.031-177.186,0.003
						c-10.252,0.006-16.302,6.167-16.308,16.444c-0.021,37.785-0.047,75.57,0.099,113.354c0.008,2.021,1.061,4.535,2.481,5.979
						c16.11,16.354,32.385,32.537,48.623,48.766c0.897,0.896,1.853,1.729,3.036,2.834c6.765-6.785,13.359-13.469,20.024-20.076
						c18.054-17.909,42.915-17.896,60.926,0.041C240.229,246.236,246.729,252.863,253.521,259.714z M333.01,370.02
						c-1.124-1.371-1.608-2.086-2.217-2.688c-37.546-37.563-75.057-75.155-112.682-112.637c-9.424-9.387-20.577-9.262-30.027,0.166
						c-37.417,37.324-74.762,74.726-112.121,112.104c-0.734,0.736-1.32,1.618-2.507,3.096c4.233,0.405,7.542,1.006,10.852,1.008
						c79.276,0.052,158.549,0.054,237.825-0.002C325.519,371.063,328.9,370.432,333.01,370.02z M350.397,355.51
						c2.82-4.511,4.668-9.641,4.668-15.314c0.004-49.483-0.021-98.977-0.05-148.459c-0.002-0.92-0.188-1.84-0.29-2.76
						c0.174,0.311,0.344,0.622,0.512,0.931c-28.753,28.211-57.507,56.424-86.033,84.413
						C296.438,301.552,323.381,328.494,350.397,355.51z M136.668,275.579c-28.16-28.677-56.312-57.347-84.878-86.437
						c-0.185,1.428-0.384,2.255-0.385,3.083c-0.013,48.751-0.03,97.503,0.021,146.255c0.006,6.254,1.811,12.041,5.2,17.146
						C83.679,328.574,110.561,301.689,136.668,275.579z M239.359,50.962c-4.828-4.799-8.896-8.854-12.977-12.889
						c-12.813-12.669-32.555-12.814-45.563-0.292c-3.713,3.576-7.314,7.27-10.931,10.942c-0.548,0.556-0.91,1.294-1.558,2.239
						C191.904,50.962,214.963,50.962,239.359,50.962z M76.961,140.78c-7.566,7.659-14.364,14.54-20.572,20.824
						c7.407,7.38,14.085,14.033,20.572,20.496C76.961,169.124,76.961,155.578,76.961,140.78z M330.505,142.069
						c-0.271,0.205-0.547,0.41-0.821,0.615c0,13.505,0,27.01,0,41.345c6.379-6.429,12.037-12.392,18.014-18.022
						c2.385-2.249,2.31-3.958,0.269-6.056C342.151,153.982,336.325,148.029,330.505,142.069z"/>
					<path d="M203.475,161.226c22.299,0.001,44.602-0.034,66.896,0.019c8.354,0.02,13.658,6.728,11.212,14.052
						c-1.448,4.334-4.64,6.674-9.082,7.36c-0.885,0.137-1.8,0.083-2.702,0.083c-44.467,0.003-88.935,0.011-133.403-0.005
						c-7.299-0.003-12.054-4.238-12.106-10.646c-0.053-6.563,4.756-10.85,12.291-10.857
						C158.877,161.213,181.176,161.225,203.475,161.226z"/>
					<path d="M203.169,131.259c-22.294-0.001-44.587,0.026-66.881-0.017c-7.669-0.015-12.401-4.627-11.971-11.45
						c0.331-5.246,4.412-9.379,9.688-9.795c0.77-0.061,1.546-0.051,2.318-0.051c44.587-0.001,89.175,0.024,133.762-0.037
						c4.815-0.006,8.595,1.508,10.862,5.881c3.414,6.584-0.803,14.547-8.201,15.288c-3.447,0.346-6.95,0.174-10.43,0.176
						C242.602,131.266,222.885,131.259,203.169,131.259z"/>
				</g>
			</g>
			<g id="Layer_6">
				<g>
					<path d="M65.779,199.876c0-45.489,0.054-90.978-0.026-136.465C65.72,44.6,72.546,29.195,87.773,17.883
						c8.523-6.333,18.203-9.942,28.845-9.969c53.115-0.13,106.231-0.37,159.343,0.009c30.175,0.215,52.044,23.643,52.218,54.898
						c0.146,25.875,0.032,51.753,0.032,77.629c0,65.237-0.06,130.473,0.04,195.709c0.024,16.823-5.232,31.265-17.906,42.612
						c-9.358,8.381-20.394,13.229-32.978,13.271c-53.114,0.187-106.229,0.127-159.344,0.106
						c-26.619-0.008-52.591-21.888-52.333-55.404C66.043,291.128,65.779,245.5,65.779,199.876z M305.328,268.695
						c0-58.396,0-116.573,0-174.731c-72.41,0-144.518,0-216.73,0c0,58.342,0,116.421,0,174.731
						C160.937,268.695,233.039,268.695,305.328,268.695z M305.561,291.924c-72.625,0-144.813,0-217.125,0
						c0,16.676-0.473,33.021,0.138,49.329c0.566,15.093,12.268,26.718,27.381,28.111c6.079,0.561,12.239,0.307,18.362,0.309
						c46.428,0.021,92.855,0.038,139.288-0.005c17.561-0.016,31.143-11.711,31.816-28.447
						C306.078,324.922,305.561,308.573,305.561,291.924z M87.915,70.628c73.143,0,145.313,0,217.713,0
						c0-3.195,0.015-6.04-0.003-8.884c-0.098-17.916-12.82-31.31-30.66-31.374c-51.994-0.186-103.992-0.151-155.989-0.01
						c-14.395,0.039-26.24,9.124-29.408,22.576C88.251,58.528,88.442,64.475,87.915,70.628z"/>
					<path d="M196.438,320.986c8.853,0,17.707-0.033,26.558,0.012c7.309,0.037,12.375,4.662,12.423,11.229
						c0.049,6.58-4.981,11.422-12.224,11.449c-17.842,0.071-35.683,0.071-53.524,0c-7.281-0.029-12.243-4.822-12.185-11.457
						c0.059-6.656,5.007-11.183,12.394-11.221C178.732,320.953,187.585,320.986,196.438,320.986z"/>
				</g>
			</g>
			<g id="Layer_7">
				<g>
					<path d="M12.997,199.935c0-0.623,0-1.247,0-1.87c1.881-2.212,3.858-4.35,5.628-6.648
						c36.166-46.952,83.191-76.262,141.572-87.025c8.22-1.516,16.559-2.395,24.842-3.569c9.973,0,19.947,0,29.92,0
						c2.748,0.365,5.491,0.771,8.245,1.089c61.538,7.125,112.269,34.333,152.072,81.837c3.961,4.728,7.814,9.542,11.726,14.315
						c0,0.623,0,1.247,0,1.87c-1.881,2.212-3.858,4.35-5.628,6.648c-36.164,46.955-83.183,76.273-141.571,87.025
						c-8.223,1.515-16.56,2.395-24.844,3.563c-9.975,0-19.947,0-29.92,0c-2.748-0.36-5.491-0.771-8.244-1.09
						c-61.539-7.124-112.271-34.331-152.074-81.835C20.76,209.523,16.903,204.709,12.997,199.935z M271.883,199.019
						c0.012-39.311-32.309-71.623-71.749-71.73c-39.356-0.106-71.882,32.168-72.017,71.46c-0.135,39.485,32.427,72.04,71.98,71.962
						C239.525,270.635,271.872,238.331,271.883,199.019z M118.602,253.843c-21.893-36.874-21.886-72.846-0.011-109.692
						c-28.946,13.136-52.628,31.198-72.544,54.862C66.053,222.702,89.701,240.783,118.602,253.843z M281.395,253.852
						c28.979-13.104,52.7-31.229,72.567-54.875c-20.146-23.75-43.762-41.839-72.565-54.813
						C303.268,181.079,303.27,216.963,281.395,253.852z"/>
					<path d="M186.767,150.941c20.606-6.555,44.476,2.909,56.12,21.935c12.069,19.721,9.069,45.032-7.285,61.472
						c-16.261,16.348-41.646,19.488-61.479,7.611c-19.332-11.577-28.836-35.313-22.234-56.582
						c5.898,9.29,13.875,14.436,24.848,13.747c6.84-0.43,12.584-3.301,17.153-8.399C204.42,178.974,201.801,163.749,186.767,150.941
						z"/>
				</g>
			</g>
			<g id="Layer_8">
				<path d="M388.942,336.217c-0.324,0.51-0.646,1.02-0.979,1.527c-2.104,3.257-5.284,4.581-8.85,3.686
					c-3.419-0.859-5.522-3.72-5.715-7.646c-0.435-8.83-0.346-17.729-1.438-26.478c-5.864-46.981-43.563-88.373-90.065-98.586
					c-9.521-2.094-19.459-3.207-29.209-3.244c-69.976-0.271-139.946-0.146-209.921-0.146c-1.1,0-2.199,0-4.402,0
					c1.571,1.609,2.494,2.605,3.468,3.55c40.578,39.238,81.161,78.474,121.741,117.709c0.884,0.854,1.814,1.679,2.583,2.628
					c2.435,3.016,2.259,7.359-0.337,10.124c-2.613,2.785-6.903,3.243-10.078,1.021c-0.8-0.563-1.501-1.271-2.208-1.95
					c-46.546-44.919-93.09-89.843-139.621-134.776c-1.03-0.992-1.91-2.143-2.859-3.219c0-1.969,0-3.937,0-5.905
					c2.106-2.192,4.144-4.454,6.327-6.564c44.922-43.422,89.86-86.828,134.801-130.232c1.148-1.109,2.261-2.291,3.553-3.21
					c3.182-2.264,7.46-1.763,10.069,1.035c2.6,2.789,2.798,7.113,0.375,10.128c-0.843,1.049-1.866,1.956-2.838,2.895
					c-40.501,39.147-81.007,78.29-121.527,117.418c-0.956,0.923-2.082,1.669-3.128,2.497c0.14,0.367,0.281,0.734,0.421,1.101
					c1.383,0,2.766,0,4.148,0c69.612,0,139.224-0.044,208.836,0.018c39.38,0.036,73.021,14.002,100.15,42.625
					c21.167,22.324,33.107,49.063,36.063,79.746c0.098,0.963,0.416,1.897,0.636,2.848
					C388.942,321.948,388.942,329.083,388.942,336.217z"/>
			</g>
		</g>
		<g id="Layer_2_1_">
			<path d="M199.698,209.859c1.67-1.594,3.001-2.816,4.278-4.094C240.98,168.78,277.973,131.783,314.98,94.8
				c16.709-16.698,38.092-16.711,54.769-0.064c3.773,3.768,7.595,7.488,11.289,11.332c13.307,13.846,13.708,35.049,0.964,49.437
				c-1.324,1.495-2.762,2.891-4.176,4.304c-49.25,49.246-98.907,98.095-147.526,147.957c-15.899,16.305-45.258,16.209-61.136-0.091
				c-49.059-50.362-99.212-99.657-148.906-149.402c-13.21-13.225-16.447-31.767-6.243-45.85c6.636-9.158,15.049-17.557,24.16-24.268
				c13.574-9.998,32.301-7.225,44.797,5.036c13.438,13.187,26.659,26.595,39.972,39.908
				C148.39,158.545,173.832,183.992,199.698,209.859z"/>
		</g>
		<g id="Layer_3_1_">
			<g>
				<path d="M392,383.396c-128.596,0-256.729,0-385.166,0c0-111.289,0-222.375,0-333.979c39.537,0,78.979,0,119.038,0
					c0-10.855,0-21.219,0-31.794c5.802,0,10.988,0,16.74,0c0,10.348,0,20.725,0,31.363c17.198,0,33.835,0,50.83,0
					c0-10.488,0-20.751,0-31.302c5.633,0,10.914,0,16.595,0c0,10.327,0,20.585,0,31.208c15.966,0,31.542,0,47.579,0
					c0-10.428,0-20.684,0-31.216c5.747,0,11.036,0,16.759,0c0,10.373,0,20.632,0,31.493c39.404,0,78.388,0,117.626,0
					C392,160.873,392,271.966,392,383.396z M375.711,65.701c-33.755,0-67.084,0-100.861,0c0,10.572,0,20.832,0,31.282
					c-5.742,0-11.029,0-16.857,0c0-10.668,0-21.033,0-31.247c-16.012,0-31.469,0-47.32,0c0,10.604,0,20.859,0,31.195
					c-5.678,0-10.944,0-16.661,0c0-10.622,0-20.885,0-31.304c-17.236,0-34.012,0-51.367,0c0,10.591,0,20.947,0,31.416
					c-5.752,0-10.923,0-16.629,0c0-10.343,0-20.447,0-30.718c-34.456,0-68.373,0-102.414,0c0,81.998,0,163.725,0,245.583
					c117.48,0,234.688,0,352.114,0C375.711,229.781,375.711,147.879,375.711,65.701z M375.181,329.742
					c-117.376,0-234.416,0-351.623,0c0,12.388,0,24.517,0,36.902c117.259,0,234.282,0,351.623,0
					C375.181,354.364,375.181,342.241,375.181,329.742z"/>
				<path d="M215.16,240.495c0,10.442,0,20.594,0,31.11c-10.415,0-20.778,0-31.454,0c0-10.188,0-20.44,0-31.11
					C194.02,240.495,204.363,240.495,215.16,240.495z"/>
				<path d="M215.129,158.948c0,10.497,0,20.614,0,31.103c-10.48,0-20.812,0-31.439,0c0-10.335,0-20.563,0-31.103
					C194.1,158.948,204.438,158.948,215.129,158.948z"/>
				<path d="M134.084,240.361c0,10.617,0,20.859,0,31.354c-10.406,0-20.621,0-31.178,0c0-10.398,0-20.734,0-31.354
					C113.215,240.361,123.438,240.361,134.084,240.361z"/>
				<path d="M296.326,271.833c-10.497,0-20.602,0-31.028,0c0-10.479,0-20.826,0-31.463c10.228,0,20.447,0,31.028,0
					C296.326,250.787,296.326,261.109,296.326,271.833z"/>
				<path d="M134.122,158.865c0,10.575,0,20.715,0,31.205c-10.375,0-20.6,0-31.192,0c0-10.284,0-20.63,0-31.205
					C113.275,158.865,123.52,158.865,134.122,158.865z"/>
				<path d="M296.336,190.164c-10.406,0-20.637,0-31.111,0c0-10.456,0-20.707,0-31.242c10.285,0,20.523,0,31.111,0
					C296.336,169.236,296.336,179.57,296.336,190.164z"/>
			</g>
		</g>
		<g id="Layer_4_1_">
			<g>
				<path d="M385.837,393.564c-6.321-5.635-12.966-10.949-18.896-16.967c-14.307-14.512-28.331-29.289-42.327-44.101
					c-2.354-2.483-4.656-3.56-8.139-3.548c-47.64,0.119-95.28,0.119-142.917,0.068c-78.795-0.08-146.748-58.084-159.177-135.796
					C0.454,106.143,58.455,23.997,145.271,8.076c7.589-1.392,15.387-2.331,23.085-2.309c24.659,0.069,49.541-1.272,73.929,1.503
					c52.436,5.964,92.342,33.124,119.954,77.967c15.703,25.5,23.021,53.595,23.063,83.492c0.1,74.186,0.032,148.375,0.032,222.559
					c0,1.11,0,2.222,0,3.333C385.502,394.27,385.669,393.918,385.837,393.564z M369.001,355.107c0-2.26,0-3.354,0-4.453
					c-0.002-60.842,0.098-121.688-0.11-182.528c-0.026-8.843-0.932-17.782-2.433-26.505
					C354.879,74.315,294.837,23.264,226.502,22.494c-18.939-0.214-37.893-0.419-56.82,0.113c-10.12,0.285-20.382,1.289-30.261,3.436
					C53.195,44.796,3.598,137.631,35.676,219.749c21.959,56.216,74.67,92.644,135.003,92.894
					c50.941,0.215,101.883,0.075,152.826-0.011c2.98-0.006,5.032,0.86,7.091,3.001C343.019,328.559,355.582,341.35,369.001,355.107z
					"/>
				<path d="M287.093,137.846c-59.995,0-119.594,0-179.427,0c0-5.26,0-10.232,0-15.603c59.744,0,119.447,0,179.427,0
					C287.093,127.375,287.093,132.453,287.093,137.846z"/>
				<path d="M107.627,201.348c0-5.304,0-10.272,0-15.588c59.795,0,119.396,0,179.37,0c0,5.033,0,10.115,0,15.588
					C227.469,201.348,167.742,201.348,107.627,201.348z"/>
			</g>
		</g>
		<g id="Layer_5_1_">
			<path d="M252.395,290.577c-72.958,50.53-165.163,26.407-209.531-33.671C-0.93,197.606,3.517,114.448,53.919,61.73
				C106.024,7.232,187.756-1.865,249.796,39.603c64.161,42.887,89.802,134.329,43.653,208.011c1.08,0.723,2.586,1.415,3.688,2.517
				c27.612,27.542,55.252,55.059,82.734,82.73c16.85,16.966,9.604,44.998-13.164,51.104c-11.651,3.128-21.781-0.055-30.275-8.549
				c-27.068-27.065-54.146-54.135-81.189-81.229C254.129,293.081,253.277,291.713,252.395,290.577z M164.734,62.981
				c-56.751,0.06-102.749,46.139-102.733,102.917c0.016,56.805,46.019,102.736,102.852,102.686
				c56.847-0.047,102.806-46.021,102.769-102.805C267.585,109.055,221.411,62.921,164.734,62.981z"/>
		</g>
		<g id="Layer_6_1_">
			<g>
				<path d="M337.466,334.523c0,7.598,0.021,14.716-0.004,21.832c-0.045,13.074-10.744,23.813-23.813,23.813
					c-79.651,0.02-159.302,0.012-238.957,0.002c-1.041,0-2.083-0.094-3.298-0.146c0-5.006,0-9.807,0-15.03
					c8.497,0,16.783-0.001,25.069,0c72.277,0.01,144.556,0.021,216.831,0.024c6.885,0,8.983-2.082,9.006-8.897
					c0.021-7.001,0.004-14.003,0.004-21.597c-1.685,0-3.164,0-4.643,0c-71.329,0-142.658,0.002-213.987,0
					c-14.64-0.002-25.015-10.508-25.009-25.219c0.019-50.766,0.012-101.524,0.015-152.29c0-1.537,0-3.073,0-4.862
					c-5.018,0-9.83,0-15.149,0c0,1.428,0,2.92,0,4.412c0,66.458,0.005,132.914-0.004,199.367
					c-0.001,10.103-6.062,19.002-15.407,22.752c-13.154,5.273-29.498-5.726-30.219-20.348c-0.052-1.063-0.025-2.139-0.025-3.209
					c-0.001-82.384-0.003-164.769,0-247.154c0.001-23.228,18.526-40.567,41.834-39.848c15.795,0.488,31.618,0.095,47.428,0.083
					c0.568,0,1.137-0.14,1.927-0.244c0-17.584,0-35.024,0-52.748c91.348,0,182.454,0,274.053,0c0,1.158,0,2.413,0,3.667
					c0,92.132,0.006,184.27-0.004,276.398c-0.002,21.66-17.531,39.195-39.169,39.234
					C341.944,334.527,339.941,334.523,337.466,334.523z M124.367,319.339c0.094,0,1.123,0,2.151,0
					c72.522,0.009,145.044,0.019,217.568,0.024c14.965,0,23.88-9.028,23.877-24.081c-0.018-86.431-0.018-172.862-0.037-259.293
					c-0.001-6.596,1.12-5.886-6.17-5.887c-63.486-0.011-126.974-0.006-190.46-0.006c-14.504,0-29.009-0.016-43.514,0.021
					c-1.392,0.003-3.388-0.675-3.413,1.862c-0.043,4.359-0.012,8.719-0.012,13.447c56.182,0,111.638,0,167.273,0
					c0,5.196,0,10.004,0,15.172c-55.737,0-111.312,0-167.063,0c-0.087,1.14-0.203,1.946-0.203,2.751
					c-0.006,66.698-0.002,133.395,0,200.09C124.368,281.945,124.367,300.45,124.367,319.339z M78.461,136.701
					c0-11.881,0.458-23.3-0.146-34.663c-0.476-8.947-7.307-15.826-16.02-17.877c-16.66-3.924-29.247,6.154-29.252,23.535
					c-0.023,76.917-0.011,153.833-0.008,230.749c0,6.303-0.046,12.604,0.061,18.904c0.081,4.728,1.651,6.68,5.567,7.396
					c6.526,1.197,9.674-1.563,9.675-8.627c0.013-71.211,0.008-142.422,0.009-213.632c0-1.844,0-3.688,0-5.789
					C58.668,136.701,68.383,136.701,78.461,136.701z M85.718,83.507c7.787,9.614,8.418,20.336,8.393,31.465
					c-0.149,65.152-0.068,130.305-0.056,195.458c0.001,7.35,2.735,9.678,9.904,8.521c3.926-0.638,5.223-2.776,5.224-8.683
					c0.004-74.31,0.004-148.616,0.005-222.924c0-1.252,0-2.503,0-3.837C101.314,83.507,93.96,83.507,85.718,83.507z"/>
				<path d="M245.969,136.994c0,30.411,0,60.546,0,90.857c-35.423,0-70.654,0-106.098,0c0-12.648,0-25.076,0-37.746
					c4.949,0,9.751,0,14.879,0c0,7.437,0,14.75,0,22.333c5.109,0,9.904,0,15.116,0c0-19.99,0-40.002,0-60.277
					c5.303,0,10.196,0,15.374,0c0,20.066,0,39.998,0,60.238c5.069,0,9.874,0,15.027,0c0-12.261,0-24.677,0-37.381
					c5.228,0,10.124,0,15.42,0c0,12.476,0,24.888,0,37.493c5.213,0,10.023,0,15.215,0c0-25.203,0-50.223,0-75.518
					C236.072,136.994,240.876,136.994,245.969,136.994z"/>
				<path d="M307.124,136.747c23.933-0.097,45.485,21.336,45.496,45.248c0.014,24.502-21.097,45.862-45.521,46.056
					c-23.857,0.19-45.785-21.617-45.783-45.538C261.316,158.154,282.646,136.846,307.124,136.747z M299.458,153.206
					c-13.683,1.062-23.649,15.48-22.677,32.333c0.953,16.539,14.375,27.727,32.23,27.148c16.582-0.539,27.032-14.12,26.978-22.901
					c-12.063,0-24.133,0-36.531,0C299.458,177.368,299.458,165.297,299.458,153.206z M336.412,174.617
					c-2.241-11.179-11.382-20.179-21.485-21.507c0,7.167,0,14.332,0,21.507C322.212,174.617,329.209,174.617,336.412,174.617z"/>
				<path d="M352.347,104.764c-30.32,0-60.444,0-90.808,0c0-4.96,0-9.758,0-14.766c30.271,0,60.387,0,90.808,0
					C352.347,94.78,352.347,99.574,352.347,104.764z"/>
				<path d="M139.834,258.152c0-4.979,0-9.695,0-14.68c30.26,0,60.486,0,90.939,0c0,4.827,0,9.631,0,14.68
					C200.512,258.152,170.39,258.152,139.834,258.152z"/>
				<path d="M230.818,273.93c0,4.963,0,9.67,0,14.66c-30.262,0-60.472,0-90.924,0c0-4.816,0-9.613,0-14.66
					C170.14,273.93,200.261,273.93,230.818,273.93z"/>
				<path d="M185.174,121.635c0,5.031,0,9.748,0,14.794c-15.08,0-30.079,0-45.293,0c0-4.91,0-9.729,0-14.794
					C154.907,121.635,169.825,121.635,185.174,121.635z"/>
				<path d="M139.826,106.026c0-4.902,0-9.621,0-14.655c15.022,0,30.027,0,45.278,0c0,4.822,0,9.626,0,14.655
					C170.102,106.026,155.188,106.026,139.826,106.026z"/>
				<path d="M307.111,60.404c0-5.005,0-9.696,0-14.695c5.022,0,9.896,0,14.987,0c0,4.932,0,9.719,0,14.695
					C317.106,60.404,312.3,60.404,307.111,60.404z"/>
				<path d="M337.741,45.577c5.006,0,9.703,0,14.65,0c0,4.955,0,9.739,0,14.771c-4.782,0-9.575,0-14.65,0
					C337.741,55.585,337.741,50.714,337.741,45.577z"/>
			</g>
		</g>
		<g id="Layer_7_1_">
			<g>
				<path d="M144.148,348.354c0,5.508,0,10.461,0,15.733c-31.83,0-63.565,0-95.705,0c0-8.438-0.047-16.765,0.061-25.091
					c0.014-1.02,0.786-2.072,1.332-3.037c45.36-80.066,90.745-160.119,136.044-240.221c1.322-2.338,2.805-3.021,5.312-2.958
					c6.113,0.149,12.235,0.187,18.347-0.016c2.618-0.087,3.939,0.838,5.215,3.096c29.318,51.892,58.729,103.734,88.115,155.587
					c15.863,27.988,31.746,55.967,47.505,84.013c1.094,1.946,1.668,4.416,1.734,6.665c0.218,7.213,0.081,14.434,0.081,21.965
					c-31.971,0-63.607,0-95.584,0c0-4.982,0-10.113,0-15.568c26.34,0,52.629,0,80.014,0c-0.792-3.268-0.904-6.314-2.212-8.717
					c-6.745-12.369-13.749-24.598-20.813-36.793c-0.648-1.132-2.313-2.385-3.516-2.39c-25.219-0.138-50.434-0.104-75.646-0.093
					c-0.597,0-1.188,0.131-1.937,0.219c0,7.871,0,15.561,0,23.615c5.131,0,10.188,0,15.719,0c0,6.418,0.043,12.486-0.06,18.55
					c-0.014,0.729-0.684,1.571-1.26,2.149c-15.25,15.291-30.528,30.554-45.812,45.813c-0.164,0.164-0.429,0.229-1.407,0.734
					c-4.644-4.803-9.417-9.854-14.31-14.779c-10.203-10.273-20.528-20.43-30.639-30.79c-1.295-1.327-2.172-3.569-2.282-5.444
					c-0.307-5.203-0.106-10.435-0.106-16.025c5.313,0,10.364,0,15.66,0c0-8.143,0-15.909,0-24.055c-1.257,0-2.349,0-3.439,0
					c-24.342,0-48.686,0.043-73.027-0.063c-2.462-0.012-3.747,0.748-4.926,2.872c-6.657,11.993-13.576,23.84-20.149,35.878
					c-1.397,2.561-1.721,5.706-2.702,9.148C91.109,348.354,117.398,348.354,144.148,348.354z M169.722,156.848
					c5.379,0,9.904,0,14.402,0c0,61.392,0,122.339,0,183.628c-4.067,0-7.751,0-10.948,0c9.114,9.289,18.291,18.64,26.84,27.35
					c9.058-9.072,18.251-18.273,27.498-27.533c-3.428,0-7.205,0-11.123,0c0-61.414,0-122.377,0-183.643c4.76,0,9.198,0,14.146,0
					c-0.762-1.5-1.262-2.591-1.852-3.633c-7.729-13.676-15.506-27.33-23.183-41.039c-1.173-2.094-2.255-3.409-5.054-3.363
					c-2.801,0.045-4.382,0.952-5.396,3.432c-0.516,1.259-1.334,2.392-2.011,3.586C185.441,129.069,177.837,142.506,169.722,156.848z
					 M168.021,284.415c0-16.089,0-31.741,0-47.497c-0.691-0.105-1.165-0.236-1.639-0.238c-13.218-0.015-26.436-0.08-39.653,0.088
					c-1.226,0.018-2.916,1.252-3.573,2.396c-8.148,14.141-16.149,28.359-24.167,42.572c-0.448,0.793-0.722,1.685-1.141,2.682
					C121.407,284.415,144.563,284.415,168.021,284.415z M303.139,284.363c-8.912-15.704-17.468-30.893-26.218-45.967
					c-0.589-1.016-2.623-1.655-3.995-1.67c-11.345-0.131-22.693-0.076-34.042-0.076c-2.075,0-4.151,0-6.344,0
					c0,16.177,0,31.828,0,47.713C255.993,284.363,279.23,284.363,303.139,284.363z M133.807,220.3c11.794,0,22.951,0,34.107,0
					c0-15.983,0-31.717,0-47.33c-4.84-1.142-7.801-0.036-10.096,4.57c-4.325,8.682-9.475,16.953-14.262,25.405
					C140.379,208.557,137.237,214.189,133.807,220.3z M266.771,220.4c-1.021-1.885-1.691-3.19-2.416-4.469
					c-7.301-12.892-14.609-25.771-21.914-38.661c-3.01-5.307-3.534-5.536-9.814-4.147c0,15.714,0,31.444,0,47.271
					C243.99,220.4,255.051,220.4,266.771,220.4z"/>
				<path d="M8.658,28.773c0-5.474,0-10.431,0-15.652c127.69,0,255.318,0,383.176,0c0,114.298,0,228.586,0,343.145
					c-5.069,0-10.11,0-15.721,0c0-2.181,0-4.252,0-6.326c0.01-105.729,0.004-211.465,0.086-317.197
					c0.002-3.063-0.766-4.033-3.935-4.029c-86.262,0.091-172.52,0.088-258.781,0.091c-33.83,0.001-67.661-0.018-101.49-0.027
					C11.01,28.772,10.023,28.773,8.658,28.773z"/>
				<path d="M8.754,45.028c95.792,0,191.374,0,287.191,0c0,5.2,0,10.251,0,15.676c-90.355,0-180.678,0-271.409,0
					c0,98.681,0,196.993,0,295.562c-5.45,0-10.497,0-15.782,0C8.754,252.609,8.754,149.051,8.754,45.028z"/>
				<path d="M120.157,93.05c0,15.917,0,31.578,0,47.489c-26.429,0-52.687,0-79.294,0c0-15.767,0-31.5,0-47.489
					C67.174,93.05,93.435,93.05,120.157,93.05z M104.147,124.507c0-5.479,0-10.515,0-15.495c-16.003,0-31.749,0-47.433,0
					c0,5.316,0,10.362,0,15.495C72.625,124.507,88.284,124.507,104.147,124.507z"/>
				<path d="M359.837,124.91c0,5.244,0,10.298,0,15.613c-26.458,0-52.797,0-79.375,0c0-5.245,0-10.297,0-15.613
					C306.939,124.91,333.28,124.91,359.837,124.91z"/>
				<path d="M359.873,93.06c0,5.198,0,10.152,0,15.398c-26.388,0-52.758,0-79.391,0c0-5.057,0-10.093,0-15.398
					C306.872,93.06,333.141,93.06,359.873,93.06z"/>
				<path d="M312.308,60.545c0-5.178,0-10.204,0-15.463c5.273,0,10.318,0,15.639,0c0,5.144,0,10.172,0,15.463
					C322.755,60.545,317.628,60.545,312.308,60.545z"/>
				<path d="M359.823,60.688c-5.312,0-10.241,0-15.44,0c0-5.202,0-10.317,0-15.627c5.158,0,10.178,0,15.44,0
					C359.823,50.292,359.823,55.313,359.823,60.688z"/>
			</g>
		</g>
	</g>
	<g id="Layer_2_2_" display="inline">
		<g>
			<path d="M11.428,200.315C11.511,95.554,95.857,11.361,200.656,11.432c104.736,0.07,188.979,84.459,188.906,189.229
				c-0.074,104.703-84.521,188.995-189.254,188.907C95.567,389.479,11.345,305.092,11.428,200.315z M200.375,49.263
				c-83.818,0.074-151.305,67.76-151.116,151.562c0.189,83.438,67.377,150.641,150.845,150.881
				c83.761,0.239,151.522-67.296,151.596-151.085C351.772,116.828,284.148,49.19,200.375,49.263z"/>
			<path d="M166.718,229.085c31.7-26.399,62.903-52.327,94.023-78.352c6.396-5.348,12.96-9.127,21.657-5.92
				c12.436,4.584,16.638,19.309,8.347,29.654c-0.79,0.985-1.677,1.922-2.646,2.73c-37.789,31.527-75.508,63.14-113.458,94.472
				c-9.081,7.495-20.817,5.812-27.513-3.883c-12.986-18.796-25.646-37.826-38.015-57.035c-5.96-9.257-3.324-20.261,5.253-26.002
				c8.69-5.817,19.528-3.977,25.982,5.165C149.292,202.586,157.703,215.635,166.718,229.085z"/>
		</g>
	</g>
</g>
<g>
	<path fill-rule="evenodd" clip-rule="evenodd" d="M86.716,60.675c4.254,6.221,5.5,13.518,7.021,20.727
		c3.34,15.832,6.835,31.636,13.631,46.437c5.43,11.826,13.015,21.433,26.545,24.697c10.913,2.633,21.196-2.422,24.806-12.434
		c3.633-10.074-1.021-20.44-11.058-25.487c-1.872-0.94-3.808-3.058-4.399-5.027c-3.598-11.993-6.892-24.079-10.121-36.178
		c-1.171-4.39-1.884-8.904-2.92-13.915c1.867,0,3.223,0,4.578,0c20.522,0,41.046-0.071,61.566,0.11
		c2.079,0.018,4.681,1.027,6.137,2.481c58.826,58.647,117.562,117.386,176.273,176.147c11.526,11.536,11.641,27.7,0.187,39.194
		c-31.633,31.743-63.313,63.439-95.067,95.062c-11.355,11.308-27.555,11.284-38.885-0.028
		C186.034,313.57,127.109,254.629,68.243,195.625c-1.197-1.199-2.05-3.338-2.056-5.042c-0.117-34.622-0.131-69.245-0.064-103.867
		C66.148,73.648,74.992,62.539,86.716,60.675z"/>
	<path fill-rule="evenodd" clip-rule="evenodd" d="M146.32,126.453c0,4.66,0,8.785,0,13.244c-9.627,0.552-17.31-2.617-22.821-10.471
		c-6.456-9.202-9.346-19.873-12.074-30.537c-2.243-8.769-4.005-17.66-5.958-26.503c-1.888-8.55-5.139-16.478-10.552-23.436
		C83.463,34.03,64.692,28.548,48.599,35.223c-15.895,6.591-24.917,23.566-22.47,42.215c1.121,8.542,3.517,16.649,8.364,23.853
		c4.264,6.337,9.598,11.249,17.94,11.924c0,4.388,0,8.632,0,13.152c-8.774,0.124-15.889-3.375-21.844-9.171
		C17.857,104.8,12.779,89.174,12.52,71.814c-0.206-13.748,3.825-26.141,13.247-36.439c20.61-22.527,56.195-21.615,77.081,1.882
		c9.49,10.675,14.05,23.473,16.896,37.213c2.371,11.445,5.401,22.757,8.251,34.099c0.573,2.278,1.58,4.461,2.512,6.635
		C133.404,121.958,137.723,126.867,146.32,126.453z"/>
</g>
</svg>
