<?xml version="1.0" encoding="utf-8"?>
<!-- Generator: Adobe Illustrator 16.0.0, SVG Export Plug-In . SVG Version: 6.00 Build 0)  -->
<!DOCTYPE svg PUBLIC "-//W3C//DTD SVG 1.1//EN" "http://www.w3.org/Graphics/SVG/1.1/DTD/svg11.dtd">
<svg version="1.1" id="Layer_1" xmlns="http://www.w3.org/2000/svg" xmlns:xlink="http://www.w3.org/1999/xlink" x="0px" y="0px"
	 width="400px" height="400px" viewBox="0 0 400 400" enable-background="new 0 0 400 400" xml:space="preserve">
<g id="Layer_1_1_" display="none">
	<path display="inline" d="M133.625,199.478c-29.327-26.012-43.421-57.672-39.971-95.929c2.522-27.971,14.997-51.471,35.894-70.336
		c41.072-37.078,103.748-37.179,144.82,0.019c24.705,22.374,37.122,50.438,36.349,83.861c-0.767,33.102-15.018,60.007-39.266,81.31
		c10.822,2.998,21.839,4.724,31.738,9.021c42.822,18.587,66.061,51.475,67.882,98.315c0.948,24.374,0.263,48.813,0.19,73.226
		c-0.024,9.188-4.634,13.668-13.975,13.672c-103.555,0.032-207.106,0.03-310.659,0.006c-8.996-0.002-13.922-4.453-13.944-13.111
		c-0.069-25.984-0.66-51.997,0.35-77.946c2.037-52.382,44.133-96.308,96.182-101.493
		C130.326,199.98,131.428,199.787,133.625,199.478z M55.776,367.764c98.178,0,194.654,0,291.25,0
		c0-22.154,0.907-43.828-0.229-65.394c-1.422-26.917-14.168-48.319-36.159-63.962c-13.664-9.721-29.046-14.994-45.811-15.069
		c-42.313-0.19-84.641-0.733-126.931,0.257c-38.932,0.912-72.433,28.37-78.566,66.678C55.293,315.475,56.782,341.559,55.776,367.764
		z M202.09,29.706c-46.486-0.048-84.702,37.925-84.874,84.335c-0.171,46.3,38.048,84.784,84.354,84.936
		c46.664,0.152,85.181-38.158,85.181-84.729C286.752,67.843,248.607,29.753,202.09,29.706z"/>
</g>
<g id="Layer_2" display="none">
	<g display="inline">
		<path d="M318.791,163.754c7.793,0,14.645-0.056,21.495,0.014c10.35,0.106,14.682,4.444,14.686,14.731
			c0.023,66.933,0.029,133.864,0.023,200.795c0,9.341-4.703,13.931-14.281,13.931c-63.399,0.01-126.797-0.004-190.198-0.007
			c-31.209-0.002-62.418,0.031-93.626-0.014c-11.573-0.019-15.465-4.022-15.468-15.66c-0.02-66.146-0.03-132.293-0.042-198.439
			c-0.001-11.004,4.316-15.334,15.308-15.353c6.655-0.012,13.309-0.002,20.935-0.002c0-2.836-0.105-5.298,0.017-7.748
			c0.912-18.182-0.265-36.78,3.204-54.464C91.852,45.396,144.586,5.201,202.311,7.07C259.568,8.923,309.117,52.693,317.178,109
			c1.411,9.849,1.271,19.938,1.565,29.924C318.98,146.93,318.791,154.948,318.791,163.754z M65.82,188.497
			c0,60.337,0,120.106,0,180.042c88.454,0,176.487,0,264.842,0c0-60.146,0-119.911,0-180.042
			C242.313,188.497,154.272,188.497,65.82,188.497z M100.723,163.248c65.667,0,129.69,0,194.718,0
			c-0.742-17.796,0.186-35.276-2.5-52.181c-7.285-45.841-47.291-79.182-93.59-79.756c-46.343-0.573-87.082,31.696-95.342,77.514
			C100.841,126.399,101.719,144.703,100.723,163.248z"/>
		<path d="M196.419,248.374c12.222,0.127,21.067,6.521,24.462,16.17c3.453,9.808,0.501,19.718-7.354,26.587
			c-1.741,1.523-2.887,4.346-3.221,6.725c-0.537,3.851,0.018,7.838-0.24,11.748c-0.438,6.643-5.527,11.127-12.142,11
			c-6.316-0.125-11.087-4.599-11.627-10.959c-0.117-1.365-0.125-2.75-0.061-4.119c0.319-6.877-0.053-12.724-6.229-18.2
			c-7.371-6.538-7.726-16.083-3.559-25.034C180.735,253.087,188.437,248.669,196.419,248.374z"/>
	</g>
</g>
<path fill-rule="evenodd" clip-rule="evenodd" d="M199.972,158.001c34.436-49.158,67.994-97.06,101.971-145.56
	c3.46,2.364,6.539,4.467,10.402,7.107c-2.001,2.987-102.807,147.602-102.84,149.612c-0.034,2.01,52.583,79.363,54.278,81.641
	c37.977-20.447,86.484-6.555,104.405,31.588c15.869,33.771,3.894,74.164-27.898,94.106c-31.212,19.581-72.826,12.662-96.27-15.741
	c-22.839-27.669-25.064-71.994,9.311-104.104c-17.463-24.958-35.009-50.028-53.358-76.255
	c-18.105,25.841-35.535,50.719-53.446,76.281c18.37,16.84,27.922,37.62,26.086,62.753c-1.392,19.05-9.405,35.196-23.316,48.284
	c-26.732,25.149-67.853,26.67-96.797,3.688c-28.349-22.511-36.006-63.012-17.877-94.572c19.941-34.717,57.666-46.985,101.57-27.804
	c18.445-26.302,37.025-52.798,55.938-79.765C174.6,144.192,105.074,44.835,87.472,19.694c3.711-2.613,6.814-4.8,10.438-7.353
	C131.863,60.8,165.546,108.869,199.972,158.001z M362.274,312.98c-0.643-34.036-28.301-61.067-62.073-60.668
	c-33.975,0.401-60.946,28.736-60.271,63.316c0.645,32.97,28.806,59.718,62.51,59.376C335.465,374.67,362.904,346.227,362.274,312.98
	z M159.988,313.809c0.003-33.632-27.09-61.22-60.4-61.499c-34.142-0.288-62.214,27.647-61.955,61.653
	c0.257,33.612,27.699,61.127,60.865,61.023C132.533,374.878,159.984,347.569,159.988,313.809z"/>
</svg>
