<svg width="10" height="10" viewBox="0 0 10 10" fill="none" xmlns="http://www.w3.org/2000/svg">
<path fill-rule="evenodd" clip-rule="evenodd" d="M10 4.66885L10 3.64431L-0.000495116 3.64431L-0.000495161 4.66885L10 4.66885ZM4.65916 9.99769L4.65916 8.5466L3.84891 9.3548L3.36522 8.8711L4.99999 7.23633L6.63477 8.8711L6.15107 9.3548L5.34082 8.5466L5.34082 9.99769L4.65916 9.99769ZM5.34082 0.00195292L5.34082 1.45305L6.15107 0.644842L6.63477 1.12854L4.99999 2.76331L3.36522 1.12854L3.84891 0.644842L4.65916 1.45305L4.65916 0.00195289L5.34082 0.00195292ZM10 5.49988L10 6.52442L-0.000495242 6.52442L-0.000495197 5.49988L10 5.49988Z" fill="#525252"/>
</svg>
