<svg width="10" height="10" viewBox="0 0 10 10" fill="none" xmlns="http://www.w3.org/2000/svg">
<path fill-rule="evenodd" clip-rule="evenodd" d="M10 1.02454L10 0L-0.000494957 -4.37136e-07L-0.000495002 1.02454L10 1.02454ZM4.65916 5.11683L4.65916 3.66574L3.84891 4.47394L3.36522 3.99024L4.99999 2.35547L6.63477 3.99024L6.15107 4.47394L5.34082 3.66574L5.34082 5.11683L4.65916 5.11683ZM5.34082 5.59375L5.34082 7.04484L6.15107 6.23664L6.63477 6.72034L4.99999 8.35511L3.36522 6.72034L3.84891 6.23664L4.65916 7.04484L4.65916 5.59375L5.34082 5.59375ZM10 8.85547L10 9.88001L-0.000495389 9.88001L-0.000495344 8.85547L10 8.85547Z" fill="#525252"/>
</svg>
