<svg width="24" height="24" viewBox="0 0 24 24" fill="none" xmlns="http://www.w3.org/2000/svg">
<path d="M20.7629 9.18347C20.5908 8.99461 20.3471 8.88687 20.0914 8.88687H3.90832C3.65278 8.88687 3.40896 8.99461 3.23681 9.18347C3.06466 9.37233 2.98009 9.62506 3.0038 9.87951L3.86726 19.1545C3.91077 19.6216 4.30267 19.9787 4.77178 19.9787H19.228C19.6971 19.9787 20.089 19.6215 20.1325 19.1545L20.996 9.87951C21.0197 9.62506 20.9351 9.37233 20.7629 9.18347ZM15.0299 18.0764C15.0292 18.0763 15.0287 18.0763 15.028 18.0764H8.97181C8.47009 18.0764 8.06338 17.6696 8.06338 17.1679C8.06338 15.9343 9.06702 14.9306 10.3007 14.9306H10.9526C10.2821 14.5602 9.82683 13.846 9.82683 13.0273C9.82683 11.8291 10.8017 10.8542 12 10.8542C13.1983 10.8542 14.1731 11.829 14.1731 13.0273C14.1731 13.846 13.7178 14.5602 13.0473 14.9306H13.6993C14.9078 14.9306 15.8955 15.8939 15.9353 17.0929C15.9373 17.1176 15.9384 17.1427 15.9384 17.1679C15.9383 17.6697 15.5316 18.0764 15.0299 18.0764ZM19.2522 7.19565C19.2522 7.57201 18.9472 7.87697 18.5709 7.87697H5.42894C5.05267 7.87697 4.74762 7.57201 4.74762 7.19565C4.74762 6.81929 5.05267 6.51433 5.42894 6.51433H18.5709C18.9472 6.51433 19.2522 6.81929 19.2522 7.19565ZM17.4535 4.6823C17.4535 5.05866 17.1485 5.36362 16.7722 5.36362H7.22763C6.85136 5.36362 6.54631 5.05866 6.54631 4.6823C6.54631 4.30594 6.85136 4.00098 7.22763 4.00098H16.7721C17.1485 4.00098 17.4535 4.30594 17.4535 4.6823Z" fill="white"/>
</svg>
