<svg width="71" height="71" viewBox="0 0 71 71" fill="none" xmlns="http://www.w3.org/2000/svg">
<circle cx="35.5" cy="35.5" r="35.5" fill="#F1F9FE"/>
<path fill-rule="evenodd" clip-rule="evenodd" d="M61.8009 59.3439C67.5171 53.0425 71 44.678 71 35.5C71 15.8939 55.1061 0 35.5 0C15.8939 0 0 15.8939 0 35.5C0 44.3195 3.21611 52.3877 8.53951 58.5961C14.2679 50.1474 23.9477 44.5957 34.9242 44.5957C46.2214 44.5957 56.1451 50.4766 61.8009 59.3439ZM48 28.5C48 35.9558 42.1797 42 35 42C27.8203 42 22 35.9558 22 28.5C22 21.0442 27.8203 15 35 15C42.1797 15 48 21.0442 48 28.5Z" fill="#BBE1FA"/>
</svg>
